%TF.GenerationSoftware,KiCad,Pcbnew,4.0.6-e0-6349~53~ubuntu16.04.1*%
%TF.CreationDate,2017-06-06T11:27:21+01:00*%
%TF.ProjectId,RN2483shield,524E32343833736869656C642E6B6963,rev?*%
%TF.FileFunction,Copper,L2,Bot,Signal*%
%FSLAX46Y46*%
G04 Gerber Fmt 4.6, Leading zero omitted, Abs format (unit mm)*
G04 Created by KiCad (PCBNEW 4.0.6-e0-6349~53~ubuntu16.04.1) date Tue Jun  6 11:27:21 2017*
%MOMM*%
%LPD*%
G01*
G04 APERTURE LIST*
%ADD10C,0.100000*%
%ADD11C,0.500000*%
%ADD12R,1.750000X1.650000*%
%ADD13C,1.750000*%
%ADD14O,1.524000X2.540000*%
%ADD15C,1.000000*%
%ADD16R,5.080000X2.286000*%
%ADD17C,1.524000*%
%ADD18C,0.800000*%
%ADD19C,1.200000*%
%ADD20C,0.250000*%
%ADD21C,0.254000*%
G04 APERTURE END LIST*
D10*
D11*
X211285000Y-89682000D02*
X212555000Y-89682000D01*
X211285000Y-98318000D02*
X212555000Y-98318000D01*
D12*
X164084000Y-96520000D03*
D13*
X164084000Y-93980000D03*
X164084000Y-91440000D03*
X164084000Y-88900000D03*
X164084000Y-86360000D03*
X164084000Y-83820000D03*
X164084000Y-81280000D03*
X164084000Y-78740000D03*
X164084000Y-76200000D03*
X164084000Y-73660000D03*
X164084000Y-71120000D03*
X164084000Y-68580000D03*
X164084000Y-66040000D03*
X164084000Y-63500000D03*
D14*
X212000000Y-102410000D03*
X209460000Y-102410000D03*
X206920000Y-102410000D03*
X199300000Y-102410000D03*
X201840000Y-102410000D03*
X204380000Y-102410000D03*
X194220000Y-102410000D03*
X191680000Y-102410000D03*
X189140000Y-102410000D03*
X184060000Y-102410000D03*
X181520000Y-102410000D03*
X212000000Y-54150000D03*
X209460000Y-54150000D03*
X206920000Y-54150000D03*
X204380000Y-54150000D03*
X201840000Y-54150000D03*
X199300000Y-54150000D03*
X196760000Y-54150000D03*
X194220000Y-54150000D03*
X190156000Y-54150000D03*
X187616000Y-54150000D03*
X185076000Y-54150000D03*
X182536000Y-54150000D03*
X179996000Y-54150000D03*
X177456000Y-54150000D03*
X174916000Y-54150000D03*
X172376000Y-54150000D03*
X186600000Y-102410000D03*
X169836000Y-54150000D03*
X167296000Y-54150000D03*
X178980000Y-102410000D03*
X176440000Y-102410000D03*
D15*
X211285000Y-89682000D03*
D16*
X214460000Y-98318000D03*
X214460000Y-89682000D03*
D15*
X211285000Y-98318000D03*
D17*
X214460000Y-94000000D03*
D18*
X211000000Y-92000000D03*
D15*
X174586900Y-80886300D03*
X174650400Y-74422000D03*
X184327800Y-80733900D03*
X209000000Y-99000000D03*
X207000000Y-99000000D03*
X205000000Y-99000000D03*
X205000000Y-97000000D03*
X207000000Y-97000000D03*
X209000000Y-97000000D03*
X209000000Y-95000000D03*
X207000000Y-95000000D03*
X205000000Y-95000000D03*
X205000000Y-93000000D03*
X207000000Y-93000000D03*
X207000000Y-91000000D03*
X207000000Y-87000000D03*
X207000000Y-89000000D03*
X205000000Y-89000000D03*
X205000000Y-91000000D03*
X203000000Y-91000000D03*
X201000000Y-91000000D03*
X201000000Y-89000000D03*
X203000000Y-89000000D03*
X203000000Y-87000000D03*
X201000000Y-87000000D03*
X201000000Y-85000000D03*
X203000000Y-85000000D03*
X203000000Y-83000000D03*
X201000000Y-83000000D03*
X201000000Y-81000000D03*
X203000000Y-81000000D03*
X203000000Y-79000000D03*
X201000000Y-79000000D03*
X201000000Y-77000000D03*
X203000000Y-77000000D03*
X205000000Y-77000000D03*
X207000000Y-77000000D03*
X209000000Y-77000000D03*
X215000000Y-77000000D03*
X211000000Y-77000000D03*
X213000000Y-77000000D03*
X215000000Y-79000000D03*
X213000000Y-79000000D03*
X213000000Y-81000000D03*
X215000000Y-81000000D03*
X215000000Y-83000000D03*
X213000000Y-83000000D03*
X213000000Y-85000000D03*
X215000000Y-85000000D03*
X215000000Y-87000000D03*
X213000000Y-87000000D03*
X211000000Y-87000000D03*
X211000000Y-85000000D03*
X211000000Y-83000000D03*
X211000000Y-81000000D03*
X211000000Y-79000000D03*
X209000000Y-79000000D03*
X209000000Y-81000000D03*
X209000000Y-83000000D03*
X207000000Y-83000000D03*
X207000000Y-81000000D03*
X207100000Y-79000000D03*
X190700000Y-89900000D03*
X176500000Y-90600000D03*
D19*
X196000000Y-94700000D03*
X194000000Y-95200000D03*
X191155155Y-94680208D03*
X189300000Y-94700000D03*
X194200000Y-63775000D03*
X196750000Y-63775000D03*
X199275000Y-63775000D03*
X201775000Y-63775000D03*
X204375000Y-63775000D03*
X206900000Y-63750000D03*
X209400000Y-63750000D03*
X211925000Y-63750000D03*
D15*
X183200000Y-61700000D03*
X183500000Y-66400000D03*
D19*
X179500000Y-61254517D03*
X187100000Y-90600000D03*
X179100000Y-67827093D03*
X185200000Y-90800000D03*
D11*
X174650400Y-74422000D02*
X174650400Y-80822800D01*
X174650400Y-80822800D02*
X174586900Y-80886300D01*
X184327800Y-80733900D02*
X184696100Y-80365600D01*
X184696100Y-80365600D02*
X184797700Y-80365600D01*
X207000000Y-99000000D02*
X209000000Y-99000000D01*
X207000000Y-97000000D02*
X205000000Y-97000000D01*
X207000000Y-95000000D02*
X209000000Y-95000000D01*
X205000000Y-93000000D02*
X205000000Y-95000000D01*
X207000000Y-91000000D02*
X207000000Y-93000000D01*
X207000000Y-89000000D02*
X207000000Y-87000000D01*
X205000000Y-91000000D02*
X205000000Y-89000000D01*
X201000000Y-91000000D02*
X203000000Y-91000000D01*
X203000000Y-89000000D02*
X201000000Y-89000000D01*
X201000000Y-87000000D02*
X203000000Y-87000000D01*
X203000000Y-85000000D02*
X201000000Y-85000000D01*
X201000000Y-83000000D02*
X203000000Y-83000000D01*
X203000000Y-81000000D02*
X201000000Y-81000000D01*
X201000000Y-79000000D02*
X203000000Y-79000000D01*
X203000000Y-77000000D02*
X201000000Y-77000000D01*
X207000000Y-77000000D02*
X205000000Y-77000000D01*
X211000000Y-77000000D02*
X209000000Y-77000000D01*
X211000000Y-77000000D02*
X215000000Y-77000000D01*
X215000000Y-77000000D02*
X213000000Y-77000000D01*
X215000000Y-79000000D02*
X215000000Y-77000000D01*
X213000000Y-81000000D02*
X213000000Y-79000000D01*
X215000000Y-83000000D02*
X215000000Y-81000000D01*
X213000000Y-85000000D02*
X213000000Y-83000000D01*
X215000000Y-87000000D02*
X215000000Y-85000000D01*
X211000000Y-87000000D02*
X213000000Y-87000000D01*
X211000000Y-83000000D02*
X211000000Y-85000000D01*
X211000000Y-79000000D02*
X211000000Y-81000000D01*
X209000000Y-81000000D02*
X209000000Y-79000000D01*
X207000000Y-83000000D02*
X209000000Y-83000000D01*
X207100000Y-79000000D02*
X207100000Y-80900000D01*
X207100000Y-80900000D02*
X207000000Y-81000000D01*
X176500000Y-90600000D02*
X176600000Y-90700000D01*
X176600000Y-90700000D02*
X177000000Y-90700000D01*
D20*
X195400001Y-95299999D02*
X196000000Y-94700000D01*
X188425590Y-97712747D02*
X188432001Y-97706336D01*
X175792125Y-97712747D02*
X188425590Y-97712747D01*
X168960317Y-90880939D02*
X175792125Y-97712747D01*
X168960317Y-75996317D02*
X168960317Y-90880939D01*
X164084000Y-71120000D02*
X168960317Y-75996317D01*
X192993664Y-97706336D02*
X195400001Y-95299999D01*
X188432001Y-97706336D02*
X192993664Y-97706336D01*
X193400001Y-95799999D02*
X194000000Y-95200000D01*
X188216822Y-97208736D02*
X188223233Y-97202325D01*
X169464328Y-90672171D02*
X176000893Y-97208736D01*
X188223233Y-97202325D02*
X191997675Y-97202325D01*
X191997675Y-97202325D02*
X193400001Y-95799999D01*
X164084000Y-68580000D02*
X169464328Y-73960328D01*
X176000893Y-97208736D02*
X188216822Y-97208736D01*
X169464328Y-73960328D02*
X169464328Y-90672171D01*
X190555156Y-95280207D02*
X191155155Y-94680208D01*
X188014465Y-96698314D02*
X189137049Y-96698314D01*
X188008054Y-96704725D02*
X188014465Y-96698314D01*
X176209661Y-96704725D02*
X188008054Y-96704725D01*
X169968339Y-90463403D02*
X176209661Y-96704725D01*
X169968339Y-71924339D02*
X169968339Y-90463403D01*
X164084000Y-66040000D02*
X169968339Y-71924339D01*
X189137049Y-96698314D02*
X190555156Y-95280207D01*
X176418429Y-96200714D02*
X187799286Y-96200714D01*
X164084000Y-63500000D02*
X170472350Y-69888350D01*
X170472350Y-69888350D02*
X170472350Y-90254635D01*
X170472350Y-90254635D02*
X176418429Y-96200714D01*
X187799286Y-96200714D02*
X189300000Y-94700000D01*
X194200000Y-63775000D02*
X194200000Y-54170000D01*
X194200000Y-54170000D02*
X194220000Y-54150000D01*
X196750000Y-63775000D02*
X196760000Y-63765000D01*
X196760000Y-63765000D02*
X196760000Y-54150000D01*
X199275000Y-63775000D02*
X199300000Y-63750000D01*
X199300000Y-63750000D02*
X199300000Y-54150000D01*
X201840000Y-63710000D02*
X201840000Y-54150000D01*
X201775000Y-63775000D02*
X201840000Y-63710000D01*
X204375000Y-63775000D02*
X204375000Y-54155000D01*
X204375000Y-54155000D02*
X204380000Y-54150000D01*
X206900000Y-63750000D02*
X206900000Y-54170000D01*
X206900000Y-54170000D02*
X206920000Y-54150000D01*
X209460000Y-63690000D02*
X209460000Y-54150000D01*
X209400000Y-63750000D02*
X209460000Y-63690000D01*
X211925000Y-63750000D02*
X211925000Y-54225000D01*
X211925000Y-54225000D02*
X212000000Y-54150000D01*
D11*
X183500000Y-66400000D02*
X183500000Y-62000000D01*
X183500000Y-62000000D02*
X183200000Y-61700000D01*
D20*
X180099999Y-61854516D02*
X179500000Y-61254517D01*
X180243800Y-83743800D02*
X180243800Y-61998317D01*
X180243800Y-61998317D02*
X180099999Y-61854516D01*
X187100000Y-90600000D02*
X180243800Y-83743800D01*
X179100000Y-68675621D02*
X179100000Y-67827093D01*
X179100000Y-84700000D02*
X179100000Y-68675621D01*
X185200000Y-90800000D02*
X179100000Y-84700000D01*
D21*
G36*
X162482700Y-52264758D02*
X161856955Y-52889411D01*
X161517887Y-53705978D01*
X161517115Y-54590143D01*
X161854758Y-55407300D01*
X162479411Y-56033045D01*
X163295978Y-56372113D01*
X164180143Y-56372885D01*
X164997300Y-56035242D01*
X165623045Y-55410589D01*
X165905818Y-54729596D01*
X166005340Y-55229930D01*
X166308172Y-55683149D01*
X166761391Y-55985981D01*
X167296000Y-56092321D01*
X167830609Y-55985981D01*
X168283828Y-55683149D01*
X168566000Y-55260850D01*
X168848172Y-55683149D01*
X169301391Y-55985981D01*
X169836000Y-56092321D01*
X170370609Y-55985981D01*
X170823828Y-55683149D01*
X171106000Y-55260850D01*
X171388172Y-55683149D01*
X171841391Y-55985981D01*
X172376000Y-56092321D01*
X172910609Y-55985981D01*
X173363828Y-55683149D01*
X173655330Y-55246887D01*
X173673941Y-55309941D01*
X174017974Y-55735630D01*
X174498723Y-55997260D01*
X174572930Y-56012220D01*
X174789000Y-55889720D01*
X174789000Y-54277000D01*
X174769000Y-54277000D01*
X174769000Y-54023000D01*
X174789000Y-54023000D01*
X174789000Y-52410280D01*
X174572930Y-52287780D01*
X174498723Y-52302740D01*
X174017974Y-52564370D01*
X173673941Y-52990059D01*
X173655330Y-53053113D01*
X173363828Y-52616851D01*
X172910609Y-52314019D01*
X172387668Y-52210000D01*
X177444332Y-52210000D01*
X176921391Y-52314019D01*
X176468172Y-52616851D01*
X176176670Y-53053113D01*
X176158059Y-52990059D01*
X175814026Y-52564370D01*
X175333277Y-52302740D01*
X175259070Y-52287780D01*
X175043000Y-52410280D01*
X175043000Y-54023000D01*
X175063000Y-54023000D01*
X175063000Y-54277000D01*
X175043000Y-54277000D01*
X175043000Y-55889720D01*
X175259070Y-56012220D01*
X175333277Y-55997260D01*
X175814026Y-55735630D01*
X176158059Y-55309941D01*
X176176670Y-55246887D01*
X176468172Y-55683149D01*
X176921391Y-55985981D01*
X177456000Y-56092321D01*
X177990609Y-55985981D01*
X178443828Y-55683149D01*
X178726000Y-55260850D01*
X179008172Y-55683149D01*
X179461391Y-55985981D01*
X179996000Y-56092321D01*
X180530609Y-55985981D01*
X180983828Y-55683149D01*
X181266000Y-55260850D01*
X181548172Y-55683149D01*
X182001391Y-55985981D01*
X182536000Y-56092321D01*
X183070609Y-55985981D01*
X183523828Y-55683149D01*
X183806000Y-55260850D01*
X184088172Y-55683149D01*
X184541391Y-55985981D01*
X185076000Y-56092321D01*
X185610609Y-55985981D01*
X186063828Y-55683149D01*
X186346000Y-55260850D01*
X186628172Y-55683149D01*
X187081391Y-55985981D01*
X187616000Y-56092321D01*
X188150609Y-55985981D01*
X188603828Y-55683149D01*
X188886000Y-55260850D01*
X189168172Y-55683149D01*
X189621391Y-55985981D01*
X190156000Y-56092321D01*
X190690609Y-55985981D01*
X191143828Y-55683149D01*
X191446660Y-55229930D01*
X191553000Y-54695321D01*
X191553000Y-53604679D01*
X191446660Y-53070070D01*
X191143828Y-52616851D01*
X190690609Y-52314019D01*
X190167668Y-52210000D01*
X194208332Y-52210000D01*
X193685391Y-52314019D01*
X193232172Y-52616851D01*
X192929340Y-53070070D01*
X192823000Y-53604679D01*
X192823000Y-54695321D01*
X192929340Y-55229930D01*
X193232172Y-55683149D01*
X193440000Y-55822016D01*
X193440000Y-62788644D01*
X193153629Y-63074515D01*
X192965215Y-63528266D01*
X192964786Y-64019579D01*
X193152408Y-64473657D01*
X193499515Y-64821371D01*
X193953266Y-65009785D01*
X194444579Y-65010214D01*
X194898657Y-64822592D01*
X195246371Y-64475485D01*
X195434785Y-64021734D01*
X195435214Y-63530421D01*
X195247592Y-63076343D01*
X194960000Y-62788248D01*
X194960000Y-55848743D01*
X195207828Y-55683149D01*
X195490000Y-55260850D01*
X195772172Y-55683149D01*
X196000000Y-55835379D01*
X196000000Y-62778661D01*
X195703629Y-63074515D01*
X195515215Y-63528266D01*
X195514786Y-64019579D01*
X195702408Y-64473657D01*
X196049515Y-64821371D01*
X196503266Y-65009785D01*
X196994579Y-65010214D01*
X197448657Y-64822592D01*
X197796371Y-64475485D01*
X197984785Y-64021734D01*
X197985214Y-63530421D01*
X197797592Y-63076343D01*
X197520000Y-62798266D01*
X197520000Y-55835379D01*
X197747828Y-55683149D01*
X198030000Y-55260850D01*
X198312172Y-55683149D01*
X198540000Y-55835379D01*
X198540000Y-62763688D01*
X198228629Y-63074515D01*
X198040215Y-63528266D01*
X198039786Y-64019579D01*
X198227408Y-64473657D01*
X198574515Y-64821371D01*
X199028266Y-65009785D01*
X199519579Y-65010214D01*
X199973657Y-64822592D01*
X200321371Y-64475485D01*
X200509785Y-64021734D01*
X200510214Y-63530421D01*
X200322592Y-63076343D01*
X200060000Y-62813292D01*
X200060000Y-55835379D01*
X200287828Y-55683149D01*
X200570000Y-55260850D01*
X200852172Y-55683149D01*
X201080000Y-55835379D01*
X201080000Y-62725897D01*
X201076343Y-62727408D01*
X200728629Y-63074515D01*
X200540215Y-63528266D01*
X200539786Y-64019579D01*
X200727408Y-64473657D01*
X201074515Y-64821371D01*
X201528266Y-65009785D01*
X202019579Y-65010214D01*
X202473657Y-64822592D01*
X202821371Y-64475485D01*
X203009785Y-64021734D01*
X203010214Y-63530421D01*
X202822592Y-63076343D01*
X202600000Y-62853362D01*
X202600000Y-55835379D01*
X202827828Y-55683149D01*
X203110000Y-55260850D01*
X203392172Y-55683149D01*
X203615000Y-55832038D01*
X203615000Y-62788644D01*
X203328629Y-63074515D01*
X203140215Y-63528266D01*
X203139786Y-64019579D01*
X203327408Y-64473657D01*
X203674515Y-64821371D01*
X204128266Y-65009785D01*
X204619579Y-65010214D01*
X205073657Y-64822592D01*
X205421371Y-64475485D01*
X205609785Y-64021734D01*
X205610214Y-63530421D01*
X205422592Y-63076343D01*
X205135000Y-62788248D01*
X205135000Y-55838720D01*
X205367828Y-55683149D01*
X205650000Y-55260850D01*
X205932172Y-55683149D01*
X206140000Y-55822016D01*
X206140000Y-62763644D01*
X205853629Y-63049515D01*
X205665215Y-63503266D01*
X205664786Y-63994579D01*
X205852408Y-64448657D01*
X206199515Y-64796371D01*
X206653266Y-64984785D01*
X207144579Y-64985214D01*
X207598657Y-64797592D01*
X207946371Y-64450485D01*
X208134785Y-63996734D01*
X208135214Y-63505421D01*
X207947592Y-63051343D01*
X207660000Y-62763248D01*
X207660000Y-55848743D01*
X207907828Y-55683149D01*
X208190000Y-55260850D01*
X208472172Y-55683149D01*
X208700000Y-55835379D01*
X208700000Y-62703749D01*
X208353629Y-63049515D01*
X208165215Y-63503266D01*
X208164786Y-63994579D01*
X208352408Y-64448657D01*
X208699515Y-64796371D01*
X209153266Y-64984785D01*
X209644579Y-64985214D01*
X210098657Y-64797592D01*
X210446371Y-64450485D01*
X210634785Y-63996734D01*
X210635214Y-63505421D01*
X210447592Y-63051343D01*
X210220000Y-62823353D01*
X210220000Y-55835379D01*
X210447828Y-55683149D01*
X210730000Y-55260850D01*
X211012172Y-55683149D01*
X211165000Y-55785266D01*
X211165000Y-62763644D01*
X210878629Y-63049515D01*
X210690215Y-63503266D01*
X210689786Y-63994579D01*
X210877408Y-64448657D01*
X211224515Y-64796371D01*
X211678266Y-64984785D01*
X212169579Y-64985214D01*
X212623657Y-64797592D01*
X212971371Y-64450485D01*
X213159785Y-63996734D01*
X213160214Y-63505421D01*
X212972592Y-63051343D01*
X212685000Y-62763248D01*
X212685000Y-55885493D01*
X212987828Y-55683149D01*
X213290660Y-55229930D01*
X213397000Y-54695321D01*
X213397000Y-53604679D01*
X213290660Y-53070070D01*
X212987828Y-52616851D01*
X212534609Y-52314019D01*
X212011668Y-52210000D01*
X213005908Y-52210000D01*
X213990000Y-53194092D01*
X213990000Y-64300000D01*
X214044046Y-64571705D01*
X214197954Y-64802046D01*
X216490000Y-67094092D01*
X216490000Y-68289426D01*
X216425242Y-68132700D01*
X215800589Y-67506955D01*
X214984022Y-67167887D01*
X214099857Y-67167115D01*
X213282700Y-67504758D01*
X212656955Y-68129411D01*
X212317887Y-68945978D01*
X212317115Y-69830143D01*
X212654758Y-70647300D01*
X213279411Y-71273045D01*
X214095978Y-71612113D01*
X214980143Y-71612885D01*
X215797300Y-71275242D01*
X216423045Y-70650589D01*
X216490000Y-70489343D01*
X216490000Y-87904000D01*
X214745750Y-87904000D01*
X214587000Y-88062750D01*
X214587000Y-89555000D01*
X214607000Y-89555000D01*
X214607000Y-89809000D01*
X214587000Y-89809000D01*
X214587000Y-91301250D01*
X214745750Y-91460000D01*
X216490000Y-91460000D01*
X216490000Y-96540000D01*
X214745750Y-96540000D01*
X214587000Y-96698750D01*
X214587000Y-98191000D01*
X214607000Y-98191000D01*
X214607000Y-98445000D01*
X214587000Y-98445000D01*
X214587000Y-99937250D01*
X214745750Y-100096000D01*
X216099908Y-100096000D01*
X214197954Y-101997954D01*
X214044046Y-102228295D01*
X213990000Y-102500000D01*
X213990000Y-104390000D01*
X163497969Y-104390000D01*
X163727300Y-104295242D01*
X164353045Y-103670589D01*
X164692113Y-102854022D01*
X164692885Y-101969857D01*
X164649427Y-101864679D01*
X175043000Y-101864679D01*
X175043000Y-102955321D01*
X175149340Y-103489930D01*
X175452172Y-103943149D01*
X175905391Y-104245981D01*
X176440000Y-104352321D01*
X176974609Y-104245981D01*
X177427828Y-103943149D01*
X177710000Y-103520850D01*
X177992172Y-103943149D01*
X178445391Y-104245981D01*
X178980000Y-104352321D01*
X179514609Y-104245981D01*
X179967828Y-103943149D01*
X180250000Y-103520850D01*
X180532172Y-103943149D01*
X180985391Y-104245981D01*
X181520000Y-104352321D01*
X182054609Y-104245981D01*
X182507828Y-103943149D01*
X182790000Y-103520850D01*
X183072172Y-103943149D01*
X183525391Y-104245981D01*
X184060000Y-104352321D01*
X184594609Y-104245981D01*
X185047828Y-103943149D01*
X185330000Y-103520850D01*
X185612172Y-103943149D01*
X186065391Y-104245981D01*
X186600000Y-104352321D01*
X187134609Y-104245981D01*
X187587828Y-103943149D01*
X187879330Y-103506887D01*
X187897941Y-103569941D01*
X188241974Y-103995630D01*
X188722723Y-104257260D01*
X188796930Y-104272220D01*
X189013000Y-104149720D01*
X189013000Y-102537000D01*
X189267000Y-102537000D01*
X189267000Y-104149720D01*
X189483070Y-104272220D01*
X189557277Y-104257260D01*
X190038026Y-103995630D01*
X190382059Y-103569941D01*
X190410000Y-103475277D01*
X190437941Y-103569941D01*
X190781974Y-103995630D01*
X191262723Y-104257260D01*
X191336930Y-104272220D01*
X191553000Y-104149720D01*
X191553000Y-102537000D01*
X189267000Y-102537000D01*
X189013000Y-102537000D01*
X188993000Y-102537000D01*
X188993000Y-102283000D01*
X189013000Y-102283000D01*
X189013000Y-100670280D01*
X189267000Y-100670280D01*
X189267000Y-102283000D01*
X191553000Y-102283000D01*
X191553000Y-100670280D01*
X191807000Y-100670280D01*
X191807000Y-102283000D01*
X191827000Y-102283000D01*
X191827000Y-102537000D01*
X191807000Y-102537000D01*
X191807000Y-104149720D01*
X192023070Y-104272220D01*
X192097277Y-104257260D01*
X192578026Y-103995630D01*
X192922059Y-103569941D01*
X192940670Y-103506887D01*
X193232172Y-103943149D01*
X193685391Y-104245981D01*
X194220000Y-104352321D01*
X194754609Y-104245981D01*
X195207828Y-103943149D01*
X195510660Y-103489930D01*
X195617000Y-102955321D01*
X195617000Y-101864679D01*
X197903000Y-101864679D01*
X197903000Y-102955321D01*
X198009340Y-103489930D01*
X198312172Y-103943149D01*
X198765391Y-104245981D01*
X199300000Y-104352321D01*
X199834609Y-104245981D01*
X200287828Y-103943149D01*
X200570000Y-103520850D01*
X200852172Y-103943149D01*
X201305391Y-104245981D01*
X201840000Y-104352321D01*
X202374609Y-104245981D01*
X202827828Y-103943149D01*
X203110000Y-103520850D01*
X203392172Y-103943149D01*
X203845391Y-104245981D01*
X204380000Y-104352321D01*
X204914609Y-104245981D01*
X205367828Y-103943149D01*
X205650000Y-103520850D01*
X205932172Y-103943149D01*
X206385391Y-104245981D01*
X206920000Y-104352321D01*
X207454609Y-104245981D01*
X207907828Y-103943149D01*
X208190000Y-103520850D01*
X208472172Y-103943149D01*
X208925391Y-104245981D01*
X209460000Y-104352321D01*
X209994609Y-104245981D01*
X210447828Y-103943149D01*
X210730000Y-103520850D01*
X211012172Y-103943149D01*
X211465391Y-104245981D01*
X212000000Y-104352321D01*
X212534609Y-104245981D01*
X212987828Y-103943149D01*
X213290660Y-103489930D01*
X213397000Y-102955321D01*
X213397000Y-101864679D01*
X213290660Y-101330070D01*
X212987828Y-100876851D01*
X212534609Y-100574019D01*
X212000000Y-100467679D01*
X211465391Y-100574019D01*
X211012172Y-100876851D01*
X210730000Y-101299150D01*
X210447828Y-100876851D01*
X209994609Y-100574019D01*
X209460000Y-100467679D01*
X208925391Y-100574019D01*
X208472172Y-100876851D01*
X208190000Y-101299150D01*
X207907828Y-100876851D01*
X207454609Y-100574019D01*
X206920000Y-100467679D01*
X206385391Y-100574019D01*
X205932172Y-100876851D01*
X205650000Y-101299150D01*
X205367828Y-100876851D01*
X204914609Y-100574019D01*
X204380000Y-100467679D01*
X203845391Y-100574019D01*
X203392172Y-100876851D01*
X203110000Y-101299150D01*
X202827828Y-100876851D01*
X202374609Y-100574019D01*
X201840000Y-100467679D01*
X201305391Y-100574019D01*
X200852172Y-100876851D01*
X200570000Y-101299150D01*
X200287828Y-100876851D01*
X199834609Y-100574019D01*
X199300000Y-100467679D01*
X198765391Y-100574019D01*
X198312172Y-100876851D01*
X198009340Y-101330070D01*
X197903000Y-101864679D01*
X195617000Y-101864679D01*
X195510660Y-101330070D01*
X195207828Y-100876851D01*
X194754609Y-100574019D01*
X194220000Y-100467679D01*
X193685391Y-100574019D01*
X193232172Y-100876851D01*
X192940670Y-101313113D01*
X192922059Y-101250059D01*
X192578026Y-100824370D01*
X192097277Y-100562740D01*
X192023070Y-100547780D01*
X191807000Y-100670280D01*
X191553000Y-100670280D01*
X191336930Y-100547780D01*
X191262723Y-100562740D01*
X190781974Y-100824370D01*
X190437941Y-101250059D01*
X190410000Y-101344723D01*
X190382059Y-101250059D01*
X190038026Y-100824370D01*
X189557277Y-100562740D01*
X189483070Y-100547780D01*
X189267000Y-100670280D01*
X189013000Y-100670280D01*
X188796930Y-100547780D01*
X188722723Y-100562740D01*
X188241974Y-100824370D01*
X187897941Y-101250059D01*
X187879330Y-101313113D01*
X187587828Y-100876851D01*
X187134609Y-100574019D01*
X186600000Y-100467679D01*
X186065391Y-100574019D01*
X185612172Y-100876851D01*
X185330000Y-101299150D01*
X185047828Y-100876851D01*
X184594609Y-100574019D01*
X184060000Y-100467679D01*
X183525391Y-100574019D01*
X183072172Y-100876851D01*
X182790000Y-101299150D01*
X182507828Y-100876851D01*
X182054609Y-100574019D01*
X181520000Y-100467679D01*
X180985391Y-100574019D01*
X180532172Y-100876851D01*
X180250000Y-101299150D01*
X179967828Y-100876851D01*
X179514609Y-100574019D01*
X178980000Y-100467679D01*
X178445391Y-100574019D01*
X177992172Y-100876851D01*
X177710000Y-101299150D01*
X177427828Y-100876851D01*
X176974609Y-100574019D01*
X176440000Y-100467679D01*
X175905391Y-100574019D01*
X175452172Y-100876851D01*
X175149340Y-101330070D01*
X175043000Y-101864679D01*
X164649427Y-101864679D01*
X164355242Y-101152700D01*
X163730589Y-100526955D01*
X162914022Y-100187887D01*
X162029857Y-100187115D01*
X161212700Y-100524758D01*
X160586955Y-101149411D01*
X160247887Y-101965978D01*
X160247115Y-102850143D01*
X160584758Y-103667300D01*
X161209411Y-104293045D01*
X161442905Y-104390000D01*
X160010000Y-104390000D01*
X160010000Y-98542775D01*
X210149803Y-98542775D01*
X210322233Y-98960086D01*
X210641235Y-99279645D01*
X211058244Y-99452803D01*
X211285000Y-99453001D01*
X211285000Y-99587309D01*
X211381673Y-99820698D01*
X211560301Y-99999327D01*
X211793690Y-100096000D01*
X214174250Y-100096000D01*
X214333000Y-99937250D01*
X214333000Y-98445000D01*
X214313000Y-98445000D01*
X214313000Y-98191000D01*
X214333000Y-98191000D01*
X214333000Y-96698750D01*
X214174250Y-96540000D01*
X211793690Y-96540000D01*
X211560301Y-96636673D01*
X211381673Y-96815302D01*
X211285000Y-97048691D01*
X211285000Y-97182999D01*
X211060225Y-97182803D01*
X210642914Y-97355233D01*
X210323355Y-97674235D01*
X210150197Y-98091244D01*
X210149803Y-98542775D01*
X160010000Y-98542775D01*
X160010000Y-95695000D01*
X162561560Y-95695000D01*
X162561560Y-97345000D01*
X162605838Y-97580317D01*
X162744910Y-97796441D01*
X162957110Y-97941431D01*
X163209000Y-97992440D01*
X164959000Y-97992440D01*
X165194317Y-97948162D01*
X165410441Y-97809090D01*
X165555431Y-97596890D01*
X165606440Y-97345000D01*
X165606440Y-95695000D01*
X165562162Y-95459683D01*
X165423090Y-95243559D01*
X165210890Y-95098569D01*
X165119371Y-95080036D01*
X165363370Y-94836463D01*
X165593738Y-94281675D01*
X165594262Y-93680960D01*
X165364862Y-93125771D01*
X164949464Y-92709647D01*
X165363370Y-92296463D01*
X165593738Y-91741675D01*
X165594262Y-91140960D01*
X165364862Y-90585771D01*
X164949464Y-90169647D01*
X165363370Y-89756463D01*
X165593738Y-89201675D01*
X165594262Y-88600960D01*
X165364862Y-88045771D01*
X164949464Y-87629647D01*
X165363370Y-87216463D01*
X165593738Y-86661675D01*
X165594262Y-86060960D01*
X165364862Y-85505771D01*
X164949464Y-85089647D01*
X165363370Y-84676463D01*
X165593738Y-84121675D01*
X165594262Y-83520960D01*
X165364862Y-82965771D01*
X164949464Y-82549647D01*
X165363370Y-82136463D01*
X165593738Y-81581675D01*
X165594262Y-80980960D01*
X165364862Y-80425771D01*
X164949464Y-80009647D01*
X165363370Y-79596463D01*
X165593738Y-79041675D01*
X165594262Y-78440960D01*
X165364862Y-77885771D01*
X164949464Y-77469647D01*
X165363370Y-77056463D01*
X165593738Y-76501675D01*
X165594262Y-75900960D01*
X165364862Y-75345771D01*
X164949464Y-74929647D01*
X165363370Y-74516463D01*
X165593738Y-73961675D01*
X165593962Y-73704764D01*
X168200317Y-76311119D01*
X168200317Y-90880939D01*
X168258169Y-91171778D01*
X168422916Y-91418340D01*
X175254724Y-98250148D01*
X175501286Y-98414895D01*
X175792125Y-98472747D01*
X188425590Y-98472747D01*
X188457820Y-98466336D01*
X192993664Y-98466336D01*
X193284503Y-98408484D01*
X193531065Y-98243737D01*
X195839941Y-95934861D01*
X196244579Y-95935214D01*
X196698657Y-95747592D01*
X197046371Y-95400485D01*
X197234785Y-94946734D01*
X197235214Y-94455421D01*
X197161352Y-94276661D01*
X213062758Y-94276661D01*
X213274990Y-94790303D01*
X213667630Y-95183629D01*
X214180900Y-95396757D01*
X214736661Y-95397242D01*
X215250303Y-95185010D01*
X215643629Y-94792370D01*
X215856757Y-94279100D01*
X215857242Y-93723339D01*
X215645010Y-93209697D01*
X215252370Y-92816371D01*
X214739100Y-92603243D01*
X214183339Y-92602758D01*
X213669697Y-92814990D01*
X213276371Y-93207630D01*
X213063243Y-93720900D01*
X213062758Y-94276661D01*
X197161352Y-94276661D01*
X197047592Y-94001343D01*
X196700485Y-93653629D01*
X196246734Y-93465215D01*
X195755421Y-93464786D01*
X195301343Y-93652408D01*
X194953629Y-93999515D01*
X194834069Y-94287447D01*
X194700485Y-94153629D01*
X194246734Y-93965215D01*
X193755421Y-93964786D01*
X193301343Y-94152408D01*
X192953629Y-94499515D01*
X192765215Y-94953266D01*
X192764860Y-95360338D01*
X191682873Y-96442325D01*
X190467840Y-96442325D01*
X190995096Y-95915069D01*
X191399734Y-95915422D01*
X191853812Y-95727800D01*
X192201526Y-95380693D01*
X192389940Y-94926942D01*
X192390369Y-94435629D01*
X192202747Y-93981551D01*
X191855640Y-93633837D01*
X191401889Y-93445423D01*
X190910576Y-93444994D01*
X190456498Y-93632616D01*
X190217587Y-93871110D01*
X190000485Y-93653629D01*
X189546734Y-93465215D01*
X189055421Y-93464786D01*
X188601343Y-93652408D01*
X188253629Y-93999515D01*
X188065215Y-94453266D01*
X188064860Y-94860338D01*
X187484484Y-95440714D01*
X176733231Y-95440714D01*
X173497488Y-92204971D01*
X209964821Y-92204971D01*
X210122058Y-92585515D01*
X210412954Y-92876919D01*
X210793223Y-93034820D01*
X211204971Y-93035179D01*
X211585515Y-92877942D01*
X211876919Y-92587046D01*
X212034820Y-92206777D01*
X212035179Y-91795029D01*
X211896748Y-91460000D01*
X214174250Y-91460000D01*
X214333000Y-91301250D01*
X214333000Y-89809000D01*
X214313000Y-89809000D01*
X214313000Y-89555000D01*
X214333000Y-89555000D01*
X214333000Y-88062750D01*
X214174250Y-87904000D01*
X211793690Y-87904000D01*
X211560301Y-88000673D01*
X211381673Y-88179302D01*
X211285000Y-88412691D01*
X211285000Y-88546999D01*
X211060225Y-88546803D01*
X210642914Y-88719233D01*
X210323355Y-89038235D01*
X210150197Y-89455244D01*
X210149803Y-89906775D01*
X210322233Y-90324086D01*
X210641235Y-90643645D01*
X211058244Y-90816803D01*
X211285000Y-90817001D01*
X211285000Y-90951309D01*
X211308188Y-91007289D01*
X211206777Y-90965180D01*
X210795029Y-90964821D01*
X210414485Y-91122058D01*
X210123081Y-91412954D01*
X209965180Y-91793223D01*
X209964821Y-92204971D01*
X173497488Y-92204971D01*
X171232350Y-89939833D01*
X171232350Y-69888350D01*
X171220772Y-69830143D01*
X171174498Y-69597510D01*
X171009751Y-69350949D01*
X169730474Y-68071672D01*
X177864786Y-68071672D01*
X178052408Y-68525750D01*
X178340000Y-68813845D01*
X178340000Y-84700000D01*
X178397852Y-84990839D01*
X178562599Y-85237401D01*
X183965139Y-90639941D01*
X183964786Y-91044579D01*
X184152408Y-91498657D01*
X184499515Y-91846371D01*
X184953266Y-92034785D01*
X185444579Y-92035214D01*
X185898657Y-91847592D01*
X186246371Y-91500485D01*
X186248578Y-91495170D01*
X186399515Y-91646371D01*
X186853266Y-91834785D01*
X187344579Y-91835214D01*
X187798657Y-91647592D01*
X188146371Y-91300485D01*
X188334785Y-90846734D01*
X188335214Y-90355421D01*
X188147592Y-89901343D01*
X187800485Y-89553629D01*
X187346734Y-89365215D01*
X186939662Y-89364860D01*
X181003800Y-83428998D01*
X181003800Y-61998317D01*
X180989566Y-61926756D01*
X180989172Y-61924775D01*
X182064803Y-61924775D01*
X182237233Y-62342086D01*
X182556235Y-62661645D01*
X182615000Y-62686046D01*
X182615000Y-65679724D01*
X182538355Y-65756235D01*
X182365197Y-66173244D01*
X182364803Y-66624775D01*
X182537233Y-67042086D01*
X182856235Y-67361645D01*
X183273244Y-67534803D01*
X183724775Y-67535197D01*
X184142086Y-67362767D01*
X184461645Y-67043765D01*
X184634803Y-66626756D01*
X184635197Y-66175225D01*
X184462767Y-65757914D01*
X184385000Y-65680011D01*
X184385000Y-62000005D01*
X184385001Y-62000000D01*
X184334959Y-61748426D01*
X184335197Y-61475225D01*
X184162767Y-61057914D01*
X183843765Y-60738355D01*
X183426756Y-60565197D01*
X182975225Y-60564803D01*
X182557914Y-60737233D01*
X182238355Y-61056235D01*
X182065197Y-61473244D01*
X182064803Y-61924775D01*
X180989172Y-61924775D01*
X180945948Y-61707477D01*
X180781201Y-61460916D01*
X180734861Y-61414576D01*
X180735214Y-61009938D01*
X180547592Y-60555860D01*
X180200485Y-60208146D01*
X179746734Y-60019732D01*
X179255421Y-60019303D01*
X178801343Y-60206925D01*
X178453629Y-60554032D01*
X178265215Y-61007783D01*
X178264786Y-61499096D01*
X178452408Y-61953174D01*
X178799515Y-62300888D01*
X179253266Y-62489302D01*
X179483800Y-62489503D01*
X179483800Y-66649223D01*
X179346734Y-66592308D01*
X178855421Y-66591879D01*
X178401343Y-66779501D01*
X178053629Y-67126608D01*
X177865215Y-67580359D01*
X177864786Y-68071672D01*
X169730474Y-68071672D01*
X165554639Y-63895837D01*
X165593738Y-63801675D01*
X165594262Y-63200960D01*
X165364862Y-62645771D01*
X164940463Y-62220630D01*
X164385675Y-61990262D01*
X163784960Y-61989738D01*
X163229771Y-62219138D01*
X162804630Y-62643537D01*
X162574262Y-63198325D01*
X162573738Y-63799040D01*
X162803138Y-64354229D01*
X163218536Y-64770353D01*
X162804630Y-65183537D01*
X162574262Y-65738325D01*
X162573738Y-66339040D01*
X162803138Y-66894229D01*
X163218536Y-67310353D01*
X162804630Y-67723537D01*
X162574262Y-68278325D01*
X162573738Y-68879040D01*
X162803138Y-69434229D01*
X163218536Y-69850353D01*
X162804630Y-70263537D01*
X162574262Y-70818325D01*
X162573738Y-71419040D01*
X162803138Y-71974229D01*
X163218536Y-72390353D01*
X162804630Y-72803537D01*
X162574262Y-73358325D01*
X162573738Y-73959040D01*
X162803138Y-74514229D01*
X163218536Y-74930353D01*
X162804630Y-75343537D01*
X162574262Y-75898325D01*
X162573738Y-76499040D01*
X162803138Y-77054229D01*
X163218536Y-77470353D01*
X162804630Y-77883537D01*
X162574262Y-78438325D01*
X162573738Y-79039040D01*
X162803138Y-79594229D01*
X163218536Y-80010353D01*
X162804630Y-80423537D01*
X162574262Y-80978325D01*
X162573738Y-81579040D01*
X162803138Y-82134229D01*
X163218536Y-82550353D01*
X162804630Y-82963537D01*
X162574262Y-83518325D01*
X162573738Y-84119040D01*
X162803138Y-84674229D01*
X163218536Y-85090353D01*
X162804630Y-85503537D01*
X162574262Y-86058325D01*
X162573738Y-86659040D01*
X162803138Y-87214229D01*
X163218536Y-87630353D01*
X162804630Y-88043537D01*
X162574262Y-88598325D01*
X162573738Y-89199040D01*
X162803138Y-89754229D01*
X163218536Y-90170353D01*
X162804630Y-90583537D01*
X162574262Y-91138325D01*
X162573738Y-91739040D01*
X162803138Y-92294229D01*
X163218536Y-92710353D01*
X162804630Y-93123537D01*
X162574262Y-93678325D01*
X162573738Y-94279040D01*
X162803138Y-94834229D01*
X163046601Y-95078118D01*
X162973683Y-95091838D01*
X162757559Y-95230910D01*
X162612569Y-95443110D01*
X162561560Y-95695000D01*
X160010000Y-95695000D01*
X160010000Y-52210000D01*
X162615224Y-52210000D01*
X162482700Y-52264758D01*
X162482700Y-52264758D01*
G37*
X162482700Y-52264758D02*
X161856955Y-52889411D01*
X161517887Y-53705978D01*
X161517115Y-54590143D01*
X161854758Y-55407300D01*
X162479411Y-56033045D01*
X163295978Y-56372113D01*
X164180143Y-56372885D01*
X164997300Y-56035242D01*
X165623045Y-55410589D01*
X165905818Y-54729596D01*
X166005340Y-55229930D01*
X166308172Y-55683149D01*
X166761391Y-55985981D01*
X167296000Y-56092321D01*
X167830609Y-55985981D01*
X168283828Y-55683149D01*
X168566000Y-55260850D01*
X168848172Y-55683149D01*
X169301391Y-55985981D01*
X169836000Y-56092321D01*
X170370609Y-55985981D01*
X170823828Y-55683149D01*
X171106000Y-55260850D01*
X171388172Y-55683149D01*
X171841391Y-55985981D01*
X172376000Y-56092321D01*
X172910609Y-55985981D01*
X173363828Y-55683149D01*
X173655330Y-55246887D01*
X173673941Y-55309941D01*
X174017974Y-55735630D01*
X174498723Y-55997260D01*
X174572930Y-56012220D01*
X174789000Y-55889720D01*
X174789000Y-54277000D01*
X174769000Y-54277000D01*
X174769000Y-54023000D01*
X174789000Y-54023000D01*
X174789000Y-52410280D01*
X174572930Y-52287780D01*
X174498723Y-52302740D01*
X174017974Y-52564370D01*
X173673941Y-52990059D01*
X173655330Y-53053113D01*
X173363828Y-52616851D01*
X172910609Y-52314019D01*
X172387668Y-52210000D01*
X177444332Y-52210000D01*
X176921391Y-52314019D01*
X176468172Y-52616851D01*
X176176670Y-53053113D01*
X176158059Y-52990059D01*
X175814026Y-52564370D01*
X175333277Y-52302740D01*
X175259070Y-52287780D01*
X175043000Y-52410280D01*
X175043000Y-54023000D01*
X175063000Y-54023000D01*
X175063000Y-54277000D01*
X175043000Y-54277000D01*
X175043000Y-55889720D01*
X175259070Y-56012220D01*
X175333277Y-55997260D01*
X175814026Y-55735630D01*
X176158059Y-55309941D01*
X176176670Y-55246887D01*
X176468172Y-55683149D01*
X176921391Y-55985981D01*
X177456000Y-56092321D01*
X177990609Y-55985981D01*
X178443828Y-55683149D01*
X178726000Y-55260850D01*
X179008172Y-55683149D01*
X179461391Y-55985981D01*
X179996000Y-56092321D01*
X180530609Y-55985981D01*
X180983828Y-55683149D01*
X181266000Y-55260850D01*
X181548172Y-55683149D01*
X182001391Y-55985981D01*
X182536000Y-56092321D01*
X183070609Y-55985981D01*
X183523828Y-55683149D01*
X183806000Y-55260850D01*
X184088172Y-55683149D01*
X184541391Y-55985981D01*
X185076000Y-56092321D01*
X185610609Y-55985981D01*
X186063828Y-55683149D01*
X186346000Y-55260850D01*
X186628172Y-55683149D01*
X187081391Y-55985981D01*
X187616000Y-56092321D01*
X188150609Y-55985981D01*
X188603828Y-55683149D01*
X188886000Y-55260850D01*
X189168172Y-55683149D01*
X189621391Y-55985981D01*
X190156000Y-56092321D01*
X190690609Y-55985981D01*
X191143828Y-55683149D01*
X191446660Y-55229930D01*
X191553000Y-54695321D01*
X191553000Y-53604679D01*
X191446660Y-53070070D01*
X191143828Y-52616851D01*
X190690609Y-52314019D01*
X190167668Y-52210000D01*
X194208332Y-52210000D01*
X193685391Y-52314019D01*
X193232172Y-52616851D01*
X192929340Y-53070070D01*
X192823000Y-53604679D01*
X192823000Y-54695321D01*
X192929340Y-55229930D01*
X193232172Y-55683149D01*
X193440000Y-55822016D01*
X193440000Y-62788644D01*
X193153629Y-63074515D01*
X192965215Y-63528266D01*
X192964786Y-64019579D01*
X193152408Y-64473657D01*
X193499515Y-64821371D01*
X193953266Y-65009785D01*
X194444579Y-65010214D01*
X194898657Y-64822592D01*
X195246371Y-64475485D01*
X195434785Y-64021734D01*
X195435214Y-63530421D01*
X195247592Y-63076343D01*
X194960000Y-62788248D01*
X194960000Y-55848743D01*
X195207828Y-55683149D01*
X195490000Y-55260850D01*
X195772172Y-55683149D01*
X196000000Y-55835379D01*
X196000000Y-62778661D01*
X195703629Y-63074515D01*
X195515215Y-63528266D01*
X195514786Y-64019579D01*
X195702408Y-64473657D01*
X196049515Y-64821371D01*
X196503266Y-65009785D01*
X196994579Y-65010214D01*
X197448657Y-64822592D01*
X197796371Y-64475485D01*
X197984785Y-64021734D01*
X197985214Y-63530421D01*
X197797592Y-63076343D01*
X197520000Y-62798266D01*
X197520000Y-55835379D01*
X197747828Y-55683149D01*
X198030000Y-55260850D01*
X198312172Y-55683149D01*
X198540000Y-55835379D01*
X198540000Y-62763688D01*
X198228629Y-63074515D01*
X198040215Y-63528266D01*
X198039786Y-64019579D01*
X198227408Y-64473657D01*
X198574515Y-64821371D01*
X199028266Y-65009785D01*
X199519579Y-65010214D01*
X199973657Y-64822592D01*
X200321371Y-64475485D01*
X200509785Y-64021734D01*
X200510214Y-63530421D01*
X200322592Y-63076343D01*
X200060000Y-62813292D01*
X200060000Y-55835379D01*
X200287828Y-55683149D01*
X200570000Y-55260850D01*
X200852172Y-55683149D01*
X201080000Y-55835379D01*
X201080000Y-62725897D01*
X201076343Y-62727408D01*
X200728629Y-63074515D01*
X200540215Y-63528266D01*
X200539786Y-64019579D01*
X200727408Y-64473657D01*
X201074515Y-64821371D01*
X201528266Y-65009785D01*
X202019579Y-65010214D01*
X202473657Y-64822592D01*
X202821371Y-64475485D01*
X203009785Y-64021734D01*
X203010214Y-63530421D01*
X202822592Y-63076343D01*
X202600000Y-62853362D01*
X202600000Y-55835379D01*
X202827828Y-55683149D01*
X203110000Y-55260850D01*
X203392172Y-55683149D01*
X203615000Y-55832038D01*
X203615000Y-62788644D01*
X203328629Y-63074515D01*
X203140215Y-63528266D01*
X203139786Y-64019579D01*
X203327408Y-64473657D01*
X203674515Y-64821371D01*
X204128266Y-65009785D01*
X204619579Y-65010214D01*
X205073657Y-64822592D01*
X205421371Y-64475485D01*
X205609785Y-64021734D01*
X205610214Y-63530421D01*
X205422592Y-63076343D01*
X205135000Y-62788248D01*
X205135000Y-55838720D01*
X205367828Y-55683149D01*
X205650000Y-55260850D01*
X205932172Y-55683149D01*
X206140000Y-55822016D01*
X206140000Y-62763644D01*
X205853629Y-63049515D01*
X205665215Y-63503266D01*
X205664786Y-63994579D01*
X205852408Y-64448657D01*
X206199515Y-64796371D01*
X206653266Y-64984785D01*
X207144579Y-64985214D01*
X207598657Y-64797592D01*
X207946371Y-64450485D01*
X208134785Y-63996734D01*
X208135214Y-63505421D01*
X207947592Y-63051343D01*
X207660000Y-62763248D01*
X207660000Y-55848743D01*
X207907828Y-55683149D01*
X208190000Y-55260850D01*
X208472172Y-55683149D01*
X208700000Y-55835379D01*
X208700000Y-62703749D01*
X208353629Y-63049515D01*
X208165215Y-63503266D01*
X208164786Y-63994579D01*
X208352408Y-64448657D01*
X208699515Y-64796371D01*
X209153266Y-64984785D01*
X209644579Y-64985214D01*
X210098657Y-64797592D01*
X210446371Y-64450485D01*
X210634785Y-63996734D01*
X210635214Y-63505421D01*
X210447592Y-63051343D01*
X210220000Y-62823353D01*
X210220000Y-55835379D01*
X210447828Y-55683149D01*
X210730000Y-55260850D01*
X211012172Y-55683149D01*
X211165000Y-55785266D01*
X211165000Y-62763644D01*
X210878629Y-63049515D01*
X210690215Y-63503266D01*
X210689786Y-63994579D01*
X210877408Y-64448657D01*
X211224515Y-64796371D01*
X211678266Y-64984785D01*
X212169579Y-64985214D01*
X212623657Y-64797592D01*
X212971371Y-64450485D01*
X213159785Y-63996734D01*
X213160214Y-63505421D01*
X212972592Y-63051343D01*
X212685000Y-62763248D01*
X212685000Y-55885493D01*
X212987828Y-55683149D01*
X213290660Y-55229930D01*
X213397000Y-54695321D01*
X213397000Y-53604679D01*
X213290660Y-53070070D01*
X212987828Y-52616851D01*
X212534609Y-52314019D01*
X212011668Y-52210000D01*
X213005908Y-52210000D01*
X213990000Y-53194092D01*
X213990000Y-64300000D01*
X214044046Y-64571705D01*
X214197954Y-64802046D01*
X216490000Y-67094092D01*
X216490000Y-68289426D01*
X216425242Y-68132700D01*
X215800589Y-67506955D01*
X214984022Y-67167887D01*
X214099857Y-67167115D01*
X213282700Y-67504758D01*
X212656955Y-68129411D01*
X212317887Y-68945978D01*
X212317115Y-69830143D01*
X212654758Y-70647300D01*
X213279411Y-71273045D01*
X214095978Y-71612113D01*
X214980143Y-71612885D01*
X215797300Y-71275242D01*
X216423045Y-70650589D01*
X216490000Y-70489343D01*
X216490000Y-87904000D01*
X214745750Y-87904000D01*
X214587000Y-88062750D01*
X214587000Y-89555000D01*
X214607000Y-89555000D01*
X214607000Y-89809000D01*
X214587000Y-89809000D01*
X214587000Y-91301250D01*
X214745750Y-91460000D01*
X216490000Y-91460000D01*
X216490000Y-96540000D01*
X214745750Y-96540000D01*
X214587000Y-96698750D01*
X214587000Y-98191000D01*
X214607000Y-98191000D01*
X214607000Y-98445000D01*
X214587000Y-98445000D01*
X214587000Y-99937250D01*
X214745750Y-100096000D01*
X216099908Y-100096000D01*
X214197954Y-101997954D01*
X214044046Y-102228295D01*
X213990000Y-102500000D01*
X213990000Y-104390000D01*
X163497969Y-104390000D01*
X163727300Y-104295242D01*
X164353045Y-103670589D01*
X164692113Y-102854022D01*
X164692885Y-101969857D01*
X164649427Y-101864679D01*
X175043000Y-101864679D01*
X175043000Y-102955321D01*
X175149340Y-103489930D01*
X175452172Y-103943149D01*
X175905391Y-104245981D01*
X176440000Y-104352321D01*
X176974609Y-104245981D01*
X177427828Y-103943149D01*
X177710000Y-103520850D01*
X177992172Y-103943149D01*
X178445391Y-104245981D01*
X178980000Y-104352321D01*
X179514609Y-104245981D01*
X179967828Y-103943149D01*
X180250000Y-103520850D01*
X180532172Y-103943149D01*
X180985391Y-104245981D01*
X181520000Y-104352321D01*
X182054609Y-104245981D01*
X182507828Y-103943149D01*
X182790000Y-103520850D01*
X183072172Y-103943149D01*
X183525391Y-104245981D01*
X184060000Y-104352321D01*
X184594609Y-104245981D01*
X185047828Y-103943149D01*
X185330000Y-103520850D01*
X185612172Y-103943149D01*
X186065391Y-104245981D01*
X186600000Y-104352321D01*
X187134609Y-104245981D01*
X187587828Y-103943149D01*
X187879330Y-103506887D01*
X187897941Y-103569941D01*
X188241974Y-103995630D01*
X188722723Y-104257260D01*
X188796930Y-104272220D01*
X189013000Y-104149720D01*
X189013000Y-102537000D01*
X189267000Y-102537000D01*
X189267000Y-104149720D01*
X189483070Y-104272220D01*
X189557277Y-104257260D01*
X190038026Y-103995630D01*
X190382059Y-103569941D01*
X190410000Y-103475277D01*
X190437941Y-103569941D01*
X190781974Y-103995630D01*
X191262723Y-104257260D01*
X191336930Y-104272220D01*
X191553000Y-104149720D01*
X191553000Y-102537000D01*
X189267000Y-102537000D01*
X189013000Y-102537000D01*
X188993000Y-102537000D01*
X188993000Y-102283000D01*
X189013000Y-102283000D01*
X189013000Y-100670280D01*
X189267000Y-100670280D01*
X189267000Y-102283000D01*
X191553000Y-102283000D01*
X191553000Y-100670280D01*
X191807000Y-100670280D01*
X191807000Y-102283000D01*
X191827000Y-102283000D01*
X191827000Y-102537000D01*
X191807000Y-102537000D01*
X191807000Y-104149720D01*
X192023070Y-104272220D01*
X192097277Y-104257260D01*
X192578026Y-103995630D01*
X192922059Y-103569941D01*
X192940670Y-103506887D01*
X193232172Y-103943149D01*
X193685391Y-104245981D01*
X194220000Y-104352321D01*
X194754609Y-104245981D01*
X195207828Y-103943149D01*
X195510660Y-103489930D01*
X195617000Y-102955321D01*
X195617000Y-101864679D01*
X197903000Y-101864679D01*
X197903000Y-102955321D01*
X198009340Y-103489930D01*
X198312172Y-103943149D01*
X198765391Y-104245981D01*
X199300000Y-104352321D01*
X199834609Y-104245981D01*
X200287828Y-103943149D01*
X200570000Y-103520850D01*
X200852172Y-103943149D01*
X201305391Y-104245981D01*
X201840000Y-104352321D01*
X202374609Y-104245981D01*
X202827828Y-103943149D01*
X203110000Y-103520850D01*
X203392172Y-103943149D01*
X203845391Y-104245981D01*
X204380000Y-104352321D01*
X204914609Y-104245981D01*
X205367828Y-103943149D01*
X205650000Y-103520850D01*
X205932172Y-103943149D01*
X206385391Y-104245981D01*
X206920000Y-104352321D01*
X207454609Y-104245981D01*
X207907828Y-103943149D01*
X208190000Y-103520850D01*
X208472172Y-103943149D01*
X208925391Y-104245981D01*
X209460000Y-104352321D01*
X209994609Y-104245981D01*
X210447828Y-103943149D01*
X210730000Y-103520850D01*
X211012172Y-103943149D01*
X211465391Y-104245981D01*
X212000000Y-104352321D01*
X212534609Y-104245981D01*
X212987828Y-103943149D01*
X213290660Y-103489930D01*
X213397000Y-102955321D01*
X213397000Y-101864679D01*
X213290660Y-101330070D01*
X212987828Y-100876851D01*
X212534609Y-100574019D01*
X212000000Y-100467679D01*
X211465391Y-100574019D01*
X211012172Y-100876851D01*
X210730000Y-101299150D01*
X210447828Y-100876851D01*
X209994609Y-100574019D01*
X209460000Y-100467679D01*
X208925391Y-100574019D01*
X208472172Y-100876851D01*
X208190000Y-101299150D01*
X207907828Y-100876851D01*
X207454609Y-100574019D01*
X206920000Y-100467679D01*
X206385391Y-100574019D01*
X205932172Y-100876851D01*
X205650000Y-101299150D01*
X205367828Y-100876851D01*
X204914609Y-100574019D01*
X204380000Y-100467679D01*
X203845391Y-100574019D01*
X203392172Y-100876851D01*
X203110000Y-101299150D01*
X202827828Y-100876851D01*
X202374609Y-100574019D01*
X201840000Y-100467679D01*
X201305391Y-100574019D01*
X200852172Y-100876851D01*
X200570000Y-101299150D01*
X200287828Y-100876851D01*
X199834609Y-100574019D01*
X199300000Y-100467679D01*
X198765391Y-100574019D01*
X198312172Y-100876851D01*
X198009340Y-101330070D01*
X197903000Y-101864679D01*
X195617000Y-101864679D01*
X195510660Y-101330070D01*
X195207828Y-100876851D01*
X194754609Y-100574019D01*
X194220000Y-100467679D01*
X193685391Y-100574019D01*
X193232172Y-100876851D01*
X192940670Y-101313113D01*
X192922059Y-101250059D01*
X192578026Y-100824370D01*
X192097277Y-100562740D01*
X192023070Y-100547780D01*
X191807000Y-100670280D01*
X191553000Y-100670280D01*
X191336930Y-100547780D01*
X191262723Y-100562740D01*
X190781974Y-100824370D01*
X190437941Y-101250059D01*
X190410000Y-101344723D01*
X190382059Y-101250059D01*
X190038026Y-100824370D01*
X189557277Y-100562740D01*
X189483070Y-100547780D01*
X189267000Y-100670280D01*
X189013000Y-100670280D01*
X188796930Y-100547780D01*
X188722723Y-100562740D01*
X188241974Y-100824370D01*
X187897941Y-101250059D01*
X187879330Y-101313113D01*
X187587828Y-100876851D01*
X187134609Y-100574019D01*
X186600000Y-100467679D01*
X186065391Y-100574019D01*
X185612172Y-100876851D01*
X185330000Y-101299150D01*
X185047828Y-100876851D01*
X184594609Y-100574019D01*
X184060000Y-100467679D01*
X183525391Y-100574019D01*
X183072172Y-100876851D01*
X182790000Y-101299150D01*
X182507828Y-100876851D01*
X182054609Y-100574019D01*
X181520000Y-100467679D01*
X180985391Y-100574019D01*
X180532172Y-100876851D01*
X180250000Y-101299150D01*
X179967828Y-100876851D01*
X179514609Y-100574019D01*
X178980000Y-100467679D01*
X178445391Y-100574019D01*
X177992172Y-100876851D01*
X177710000Y-101299150D01*
X177427828Y-100876851D01*
X176974609Y-100574019D01*
X176440000Y-100467679D01*
X175905391Y-100574019D01*
X175452172Y-100876851D01*
X175149340Y-101330070D01*
X175043000Y-101864679D01*
X164649427Y-101864679D01*
X164355242Y-101152700D01*
X163730589Y-100526955D01*
X162914022Y-100187887D01*
X162029857Y-100187115D01*
X161212700Y-100524758D01*
X160586955Y-101149411D01*
X160247887Y-101965978D01*
X160247115Y-102850143D01*
X160584758Y-103667300D01*
X161209411Y-104293045D01*
X161442905Y-104390000D01*
X160010000Y-104390000D01*
X160010000Y-98542775D01*
X210149803Y-98542775D01*
X210322233Y-98960086D01*
X210641235Y-99279645D01*
X211058244Y-99452803D01*
X211285000Y-99453001D01*
X211285000Y-99587309D01*
X211381673Y-99820698D01*
X211560301Y-99999327D01*
X211793690Y-100096000D01*
X214174250Y-100096000D01*
X214333000Y-99937250D01*
X214333000Y-98445000D01*
X214313000Y-98445000D01*
X214313000Y-98191000D01*
X214333000Y-98191000D01*
X214333000Y-96698750D01*
X214174250Y-96540000D01*
X211793690Y-96540000D01*
X211560301Y-96636673D01*
X211381673Y-96815302D01*
X211285000Y-97048691D01*
X211285000Y-97182999D01*
X211060225Y-97182803D01*
X210642914Y-97355233D01*
X210323355Y-97674235D01*
X210150197Y-98091244D01*
X210149803Y-98542775D01*
X160010000Y-98542775D01*
X160010000Y-95695000D01*
X162561560Y-95695000D01*
X162561560Y-97345000D01*
X162605838Y-97580317D01*
X162744910Y-97796441D01*
X162957110Y-97941431D01*
X163209000Y-97992440D01*
X164959000Y-97992440D01*
X165194317Y-97948162D01*
X165410441Y-97809090D01*
X165555431Y-97596890D01*
X165606440Y-97345000D01*
X165606440Y-95695000D01*
X165562162Y-95459683D01*
X165423090Y-95243559D01*
X165210890Y-95098569D01*
X165119371Y-95080036D01*
X165363370Y-94836463D01*
X165593738Y-94281675D01*
X165594262Y-93680960D01*
X165364862Y-93125771D01*
X164949464Y-92709647D01*
X165363370Y-92296463D01*
X165593738Y-91741675D01*
X165594262Y-91140960D01*
X165364862Y-90585771D01*
X164949464Y-90169647D01*
X165363370Y-89756463D01*
X165593738Y-89201675D01*
X165594262Y-88600960D01*
X165364862Y-88045771D01*
X164949464Y-87629647D01*
X165363370Y-87216463D01*
X165593738Y-86661675D01*
X165594262Y-86060960D01*
X165364862Y-85505771D01*
X164949464Y-85089647D01*
X165363370Y-84676463D01*
X165593738Y-84121675D01*
X165594262Y-83520960D01*
X165364862Y-82965771D01*
X164949464Y-82549647D01*
X165363370Y-82136463D01*
X165593738Y-81581675D01*
X165594262Y-80980960D01*
X165364862Y-80425771D01*
X164949464Y-80009647D01*
X165363370Y-79596463D01*
X165593738Y-79041675D01*
X165594262Y-78440960D01*
X165364862Y-77885771D01*
X164949464Y-77469647D01*
X165363370Y-77056463D01*
X165593738Y-76501675D01*
X165594262Y-75900960D01*
X165364862Y-75345771D01*
X164949464Y-74929647D01*
X165363370Y-74516463D01*
X165593738Y-73961675D01*
X165593962Y-73704764D01*
X168200317Y-76311119D01*
X168200317Y-90880939D01*
X168258169Y-91171778D01*
X168422916Y-91418340D01*
X175254724Y-98250148D01*
X175501286Y-98414895D01*
X175792125Y-98472747D01*
X188425590Y-98472747D01*
X188457820Y-98466336D01*
X192993664Y-98466336D01*
X193284503Y-98408484D01*
X193531065Y-98243737D01*
X195839941Y-95934861D01*
X196244579Y-95935214D01*
X196698657Y-95747592D01*
X197046371Y-95400485D01*
X197234785Y-94946734D01*
X197235214Y-94455421D01*
X197161352Y-94276661D01*
X213062758Y-94276661D01*
X213274990Y-94790303D01*
X213667630Y-95183629D01*
X214180900Y-95396757D01*
X214736661Y-95397242D01*
X215250303Y-95185010D01*
X215643629Y-94792370D01*
X215856757Y-94279100D01*
X215857242Y-93723339D01*
X215645010Y-93209697D01*
X215252370Y-92816371D01*
X214739100Y-92603243D01*
X214183339Y-92602758D01*
X213669697Y-92814990D01*
X213276371Y-93207630D01*
X213063243Y-93720900D01*
X213062758Y-94276661D01*
X197161352Y-94276661D01*
X197047592Y-94001343D01*
X196700485Y-93653629D01*
X196246734Y-93465215D01*
X195755421Y-93464786D01*
X195301343Y-93652408D01*
X194953629Y-93999515D01*
X194834069Y-94287447D01*
X194700485Y-94153629D01*
X194246734Y-93965215D01*
X193755421Y-93964786D01*
X193301343Y-94152408D01*
X192953629Y-94499515D01*
X192765215Y-94953266D01*
X192764860Y-95360338D01*
X191682873Y-96442325D01*
X190467840Y-96442325D01*
X190995096Y-95915069D01*
X191399734Y-95915422D01*
X191853812Y-95727800D01*
X192201526Y-95380693D01*
X192389940Y-94926942D01*
X192390369Y-94435629D01*
X192202747Y-93981551D01*
X191855640Y-93633837D01*
X191401889Y-93445423D01*
X190910576Y-93444994D01*
X190456498Y-93632616D01*
X190217587Y-93871110D01*
X190000485Y-93653629D01*
X189546734Y-93465215D01*
X189055421Y-93464786D01*
X188601343Y-93652408D01*
X188253629Y-93999515D01*
X188065215Y-94453266D01*
X188064860Y-94860338D01*
X187484484Y-95440714D01*
X176733231Y-95440714D01*
X173497488Y-92204971D01*
X209964821Y-92204971D01*
X210122058Y-92585515D01*
X210412954Y-92876919D01*
X210793223Y-93034820D01*
X211204971Y-93035179D01*
X211585515Y-92877942D01*
X211876919Y-92587046D01*
X212034820Y-92206777D01*
X212035179Y-91795029D01*
X211896748Y-91460000D01*
X214174250Y-91460000D01*
X214333000Y-91301250D01*
X214333000Y-89809000D01*
X214313000Y-89809000D01*
X214313000Y-89555000D01*
X214333000Y-89555000D01*
X214333000Y-88062750D01*
X214174250Y-87904000D01*
X211793690Y-87904000D01*
X211560301Y-88000673D01*
X211381673Y-88179302D01*
X211285000Y-88412691D01*
X211285000Y-88546999D01*
X211060225Y-88546803D01*
X210642914Y-88719233D01*
X210323355Y-89038235D01*
X210150197Y-89455244D01*
X210149803Y-89906775D01*
X210322233Y-90324086D01*
X210641235Y-90643645D01*
X211058244Y-90816803D01*
X211285000Y-90817001D01*
X211285000Y-90951309D01*
X211308188Y-91007289D01*
X211206777Y-90965180D01*
X210795029Y-90964821D01*
X210414485Y-91122058D01*
X210123081Y-91412954D01*
X209965180Y-91793223D01*
X209964821Y-92204971D01*
X173497488Y-92204971D01*
X171232350Y-89939833D01*
X171232350Y-69888350D01*
X171220772Y-69830143D01*
X171174498Y-69597510D01*
X171009751Y-69350949D01*
X169730474Y-68071672D01*
X177864786Y-68071672D01*
X178052408Y-68525750D01*
X178340000Y-68813845D01*
X178340000Y-84700000D01*
X178397852Y-84990839D01*
X178562599Y-85237401D01*
X183965139Y-90639941D01*
X183964786Y-91044579D01*
X184152408Y-91498657D01*
X184499515Y-91846371D01*
X184953266Y-92034785D01*
X185444579Y-92035214D01*
X185898657Y-91847592D01*
X186246371Y-91500485D01*
X186248578Y-91495170D01*
X186399515Y-91646371D01*
X186853266Y-91834785D01*
X187344579Y-91835214D01*
X187798657Y-91647592D01*
X188146371Y-91300485D01*
X188334785Y-90846734D01*
X188335214Y-90355421D01*
X188147592Y-89901343D01*
X187800485Y-89553629D01*
X187346734Y-89365215D01*
X186939662Y-89364860D01*
X181003800Y-83428998D01*
X181003800Y-61998317D01*
X180989566Y-61926756D01*
X180989172Y-61924775D01*
X182064803Y-61924775D01*
X182237233Y-62342086D01*
X182556235Y-62661645D01*
X182615000Y-62686046D01*
X182615000Y-65679724D01*
X182538355Y-65756235D01*
X182365197Y-66173244D01*
X182364803Y-66624775D01*
X182537233Y-67042086D01*
X182856235Y-67361645D01*
X183273244Y-67534803D01*
X183724775Y-67535197D01*
X184142086Y-67362767D01*
X184461645Y-67043765D01*
X184634803Y-66626756D01*
X184635197Y-66175225D01*
X184462767Y-65757914D01*
X184385000Y-65680011D01*
X184385000Y-62000005D01*
X184385001Y-62000000D01*
X184334959Y-61748426D01*
X184335197Y-61475225D01*
X184162767Y-61057914D01*
X183843765Y-60738355D01*
X183426756Y-60565197D01*
X182975225Y-60564803D01*
X182557914Y-60737233D01*
X182238355Y-61056235D01*
X182065197Y-61473244D01*
X182064803Y-61924775D01*
X180989172Y-61924775D01*
X180945948Y-61707477D01*
X180781201Y-61460916D01*
X180734861Y-61414576D01*
X180735214Y-61009938D01*
X180547592Y-60555860D01*
X180200485Y-60208146D01*
X179746734Y-60019732D01*
X179255421Y-60019303D01*
X178801343Y-60206925D01*
X178453629Y-60554032D01*
X178265215Y-61007783D01*
X178264786Y-61499096D01*
X178452408Y-61953174D01*
X178799515Y-62300888D01*
X179253266Y-62489302D01*
X179483800Y-62489503D01*
X179483800Y-66649223D01*
X179346734Y-66592308D01*
X178855421Y-66591879D01*
X178401343Y-66779501D01*
X178053629Y-67126608D01*
X177865215Y-67580359D01*
X177864786Y-68071672D01*
X169730474Y-68071672D01*
X165554639Y-63895837D01*
X165593738Y-63801675D01*
X165594262Y-63200960D01*
X165364862Y-62645771D01*
X164940463Y-62220630D01*
X164385675Y-61990262D01*
X163784960Y-61989738D01*
X163229771Y-62219138D01*
X162804630Y-62643537D01*
X162574262Y-63198325D01*
X162573738Y-63799040D01*
X162803138Y-64354229D01*
X163218536Y-64770353D01*
X162804630Y-65183537D01*
X162574262Y-65738325D01*
X162573738Y-66339040D01*
X162803138Y-66894229D01*
X163218536Y-67310353D01*
X162804630Y-67723537D01*
X162574262Y-68278325D01*
X162573738Y-68879040D01*
X162803138Y-69434229D01*
X163218536Y-69850353D01*
X162804630Y-70263537D01*
X162574262Y-70818325D01*
X162573738Y-71419040D01*
X162803138Y-71974229D01*
X163218536Y-72390353D01*
X162804630Y-72803537D01*
X162574262Y-73358325D01*
X162573738Y-73959040D01*
X162803138Y-74514229D01*
X163218536Y-74930353D01*
X162804630Y-75343537D01*
X162574262Y-75898325D01*
X162573738Y-76499040D01*
X162803138Y-77054229D01*
X163218536Y-77470353D01*
X162804630Y-77883537D01*
X162574262Y-78438325D01*
X162573738Y-79039040D01*
X162803138Y-79594229D01*
X163218536Y-80010353D01*
X162804630Y-80423537D01*
X162574262Y-80978325D01*
X162573738Y-81579040D01*
X162803138Y-82134229D01*
X163218536Y-82550353D01*
X162804630Y-82963537D01*
X162574262Y-83518325D01*
X162573738Y-84119040D01*
X162803138Y-84674229D01*
X163218536Y-85090353D01*
X162804630Y-85503537D01*
X162574262Y-86058325D01*
X162573738Y-86659040D01*
X162803138Y-87214229D01*
X163218536Y-87630353D01*
X162804630Y-88043537D01*
X162574262Y-88598325D01*
X162573738Y-89199040D01*
X162803138Y-89754229D01*
X163218536Y-90170353D01*
X162804630Y-90583537D01*
X162574262Y-91138325D01*
X162573738Y-91739040D01*
X162803138Y-92294229D01*
X163218536Y-92710353D01*
X162804630Y-93123537D01*
X162574262Y-93678325D01*
X162573738Y-94279040D01*
X162803138Y-94834229D01*
X163046601Y-95078118D01*
X162973683Y-95091838D01*
X162757559Y-95230910D01*
X162612569Y-95443110D01*
X162561560Y-95695000D01*
X160010000Y-95695000D01*
X160010000Y-52210000D01*
X162615224Y-52210000D01*
X162482700Y-52264758D01*
M02*
