%TF.GenerationSoftware,KiCad,Pcbnew,4.0.6-e0-6349~53~ubuntu16.04.1*%
%TF.CreationDate,2017-06-06T11:27:21+01:00*%
%TF.ProjectId,RN2483shield,524E32343833736869656C642E6B6963,rev?*%
%TF.FileFunction,Legend,Top*%
%FSLAX46Y46*%
G04 Gerber Fmt 4.6, Leading zero omitted, Abs format (unit mm)*
G04 Created by KiCad (PCBNEW 4.0.6-e0-6349~53~ubuntu16.04.1) date Tue Jun  6 11:27:21 2017*
%MOMM*%
%LPD*%
G01*
G04 APERTURE LIST*
%ADD10C,0.100000*%
%ADD11C,0.150000*%
%ADD12C,0.300000*%
%ADD13C,0.200000*%
%ADD14C,0.120000*%
%ADD15C,0.304800*%
%ADD16R,1.416000X1.924000*%
%ADD17R,1.924000X1.416000*%
%ADD18R,2.400000X1.400000*%
%ADD19R,2.150000X2.050000*%
%ADD20C,2.150000*%
%ADD21R,1.200000X1.300000*%
%ADD22R,1.600000X1.300000*%
%ADD23R,1.300000X1.600000*%
%ADD24O,1.924000X2.940000*%
%ADD25C,3.575000*%
%ADD26C,1.400000*%
%ADD27R,5.480000X2.686000*%
%ADD28C,1.924000*%
G04 APERTURE END LIST*
D10*
D11*
X165423986Y-104108205D02*
X165423986Y-103574871D01*
X165423986Y-103727252D02*
X165462081Y-103651062D01*
X165500177Y-103612967D01*
X165576367Y-103574871D01*
X165652558Y-103574871D01*
X166223986Y-104070110D02*
X166147796Y-104108205D01*
X165995415Y-104108205D01*
X165919224Y-104070110D01*
X165881129Y-103993919D01*
X165881129Y-103689157D01*
X165919224Y-103612967D01*
X165995415Y-103574871D01*
X166147796Y-103574871D01*
X166223986Y-103612967D01*
X166262081Y-103689157D01*
X166262081Y-103765348D01*
X165881129Y-103841538D01*
X166528748Y-103574871D02*
X166719224Y-104108205D01*
X166909700Y-103574871D01*
X167633510Y-104108205D02*
X167176367Y-104108205D01*
X167404938Y-104108205D02*
X167404938Y-103308205D01*
X167328748Y-103422490D01*
X167252557Y-103498681D01*
X167176367Y-103536776D01*
D12*
X173371857Y-99382971D02*
X172657571Y-99382971D01*
X172657571Y-97882971D01*
X174086143Y-99382971D02*
X173943285Y-99311543D01*
X173871857Y-99240114D01*
X173800428Y-99097257D01*
X173800428Y-98668686D01*
X173871857Y-98525829D01*
X173943285Y-98454400D01*
X174086143Y-98382971D01*
X174300428Y-98382971D01*
X174443285Y-98454400D01*
X174514714Y-98525829D01*
X174586143Y-98668686D01*
X174586143Y-99097257D01*
X174514714Y-99240114D01*
X174443285Y-99311543D01*
X174300428Y-99382971D01*
X174086143Y-99382971D01*
X176086143Y-99382971D02*
X175586143Y-98668686D01*
X175229000Y-99382971D02*
X175229000Y-97882971D01*
X175800428Y-97882971D01*
X175943286Y-97954400D01*
X176014714Y-98025829D01*
X176086143Y-98168686D01*
X176086143Y-98382971D01*
X176014714Y-98525829D01*
X175943286Y-98597257D01*
X175800428Y-98668686D01*
X175229000Y-98668686D01*
X177371857Y-99382971D02*
X177371857Y-98597257D01*
X177300428Y-98454400D01*
X177157571Y-98382971D01*
X176871857Y-98382971D01*
X176729000Y-98454400D01*
X177371857Y-99311543D02*
X177229000Y-99382971D01*
X176871857Y-99382971D01*
X176729000Y-99311543D01*
X176657571Y-99168686D01*
X176657571Y-99025829D01*
X176729000Y-98882971D01*
X176871857Y-98811543D01*
X177229000Y-98811543D01*
X177371857Y-98740114D01*
X177943286Y-97882971D02*
X178300429Y-99382971D01*
X178586143Y-98311543D01*
X178871857Y-99382971D01*
X179229000Y-97882971D01*
X179729000Y-98954400D02*
X180443286Y-98954400D01*
X179586143Y-99382971D02*
X180086143Y-97882971D01*
X180586143Y-99382971D01*
X181086143Y-99382971D02*
X181086143Y-97882971D01*
X181943286Y-99382971D01*
X181943286Y-97882971D01*
X183729000Y-99311543D02*
X183871857Y-99382971D01*
X184157572Y-99382971D01*
X184300429Y-99311543D01*
X184371857Y-99168686D01*
X184371857Y-99097257D01*
X184300429Y-98954400D01*
X184157572Y-98882971D01*
X183943286Y-98882971D01*
X183800429Y-98811543D01*
X183729000Y-98668686D01*
X183729000Y-98597257D01*
X183800429Y-98454400D01*
X183943286Y-98382971D01*
X184157572Y-98382971D01*
X184300429Y-98454400D01*
X185014715Y-99382971D02*
X185014715Y-97882971D01*
X185657572Y-99382971D02*
X185657572Y-98597257D01*
X185586143Y-98454400D01*
X185443286Y-98382971D01*
X185229001Y-98382971D01*
X185086143Y-98454400D01*
X185014715Y-98525829D01*
X186371858Y-99382971D02*
X186371858Y-98382971D01*
X186371858Y-97882971D02*
X186300429Y-97954400D01*
X186371858Y-98025829D01*
X186443286Y-97954400D01*
X186371858Y-97882971D01*
X186371858Y-98025829D01*
X187657572Y-99311543D02*
X187514715Y-99382971D01*
X187229001Y-99382971D01*
X187086144Y-99311543D01*
X187014715Y-99168686D01*
X187014715Y-98597257D01*
X187086144Y-98454400D01*
X187229001Y-98382971D01*
X187514715Y-98382971D01*
X187657572Y-98454400D01*
X187729001Y-98597257D01*
X187729001Y-98740114D01*
X187014715Y-98882971D01*
X188586144Y-99382971D02*
X188443286Y-99311543D01*
X188371858Y-99168686D01*
X188371858Y-97882971D01*
X189800429Y-99382971D02*
X189800429Y-97882971D01*
X189800429Y-99311543D02*
X189657572Y-99382971D01*
X189371858Y-99382971D01*
X189229000Y-99311543D01*
X189157572Y-99240114D01*
X189086143Y-99097257D01*
X189086143Y-98668686D01*
X189157572Y-98525829D01*
X189229000Y-98454400D01*
X189371858Y-98382971D01*
X189657572Y-98382971D01*
X189800429Y-98454400D01*
X181838059Y-84663671D02*
X181338059Y-83949386D01*
X180980916Y-84663671D02*
X180980916Y-83163671D01*
X181552344Y-83163671D01*
X181695202Y-83235100D01*
X181766630Y-83306529D01*
X181838059Y-83449386D01*
X181838059Y-83663671D01*
X181766630Y-83806529D01*
X181695202Y-83877957D01*
X181552344Y-83949386D01*
X180980916Y-83949386D01*
X182480916Y-84663671D02*
X182480916Y-83163671D01*
X183338059Y-84663671D01*
X183338059Y-83163671D01*
X183980916Y-83306529D02*
X184052345Y-83235100D01*
X184195202Y-83163671D01*
X184552345Y-83163671D01*
X184695202Y-83235100D01*
X184766631Y-83306529D01*
X184838059Y-83449386D01*
X184838059Y-83592243D01*
X184766631Y-83806529D01*
X183909488Y-84663671D01*
X184838059Y-84663671D01*
X186123773Y-83663671D02*
X186123773Y-84663671D01*
X185766630Y-83092243D02*
X185409487Y-84163671D01*
X186338059Y-84163671D01*
X187123773Y-83806529D02*
X186980915Y-83735100D01*
X186909487Y-83663671D01*
X186838058Y-83520814D01*
X186838058Y-83449386D01*
X186909487Y-83306529D01*
X186980915Y-83235100D01*
X187123773Y-83163671D01*
X187409487Y-83163671D01*
X187552344Y-83235100D01*
X187623773Y-83306529D01*
X187695201Y-83449386D01*
X187695201Y-83520814D01*
X187623773Y-83663671D01*
X187552344Y-83735100D01*
X187409487Y-83806529D01*
X187123773Y-83806529D01*
X186980915Y-83877957D01*
X186909487Y-83949386D01*
X186838058Y-84092243D01*
X186838058Y-84377957D01*
X186909487Y-84520814D01*
X186980915Y-84592243D01*
X187123773Y-84663671D01*
X187409487Y-84663671D01*
X187552344Y-84592243D01*
X187623773Y-84520814D01*
X187695201Y-84377957D01*
X187695201Y-84092243D01*
X187623773Y-83949386D01*
X187552344Y-83877957D01*
X187409487Y-83806529D01*
X188195201Y-83163671D02*
X189123772Y-83163671D01*
X188623772Y-83735100D01*
X188838058Y-83735100D01*
X188980915Y-83806529D01*
X189052344Y-83877957D01*
X189123772Y-84020814D01*
X189123772Y-84377957D01*
X189052344Y-84520814D01*
X188980915Y-84592243D01*
X188838058Y-84663671D01*
X188409486Y-84663671D01*
X188266629Y-84592243D01*
X188195201Y-84520814D01*
X190838057Y-83092243D02*
X189552343Y-85020814D01*
X192195201Y-84663671D02*
X191695201Y-83949386D01*
X191338058Y-84663671D02*
X191338058Y-83163671D01*
X191909486Y-83163671D01*
X192052344Y-83235100D01*
X192123772Y-83306529D01*
X192195201Y-83449386D01*
X192195201Y-83663671D01*
X192123772Y-83806529D01*
X192052344Y-83877957D01*
X191909486Y-83949386D01*
X191338058Y-83949386D01*
X192838058Y-84663671D02*
X192838058Y-83163671D01*
X193695201Y-84663671D01*
X193695201Y-83163671D01*
X194338058Y-83306529D02*
X194409487Y-83235100D01*
X194552344Y-83163671D01*
X194909487Y-83163671D01*
X195052344Y-83235100D01*
X195123773Y-83306529D01*
X195195201Y-83449386D01*
X195195201Y-83592243D01*
X195123773Y-83806529D01*
X194266630Y-84663671D01*
X195195201Y-84663671D01*
X195909486Y-84663671D02*
X196195201Y-84663671D01*
X196338058Y-84592243D01*
X196409486Y-84520814D01*
X196552344Y-84306529D01*
X196623772Y-84020814D01*
X196623772Y-83449386D01*
X196552344Y-83306529D01*
X196480915Y-83235100D01*
X196338058Y-83163671D01*
X196052344Y-83163671D01*
X195909486Y-83235100D01*
X195838058Y-83306529D01*
X195766629Y-83449386D01*
X195766629Y-83806529D01*
X195838058Y-83949386D01*
X195909486Y-84020814D01*
X196052344Y-84092243D01*
X196338058Y-84092243D01*
X196480915Y-84020814D01*
X196552344Y-83949386D01*
X196623772Y-83806529D01*
X197552343Y-83163671D02*
X197695200Y-83163671D01*
X197838057Y-83235100D01*
X197909486Y-83306529D01*
X197980915Y-83449386D01*
X198052343Y-83735100D01*
X198052343Y-84092243D01*
X197980915Y-84377957D01*
X197909486Y-84520814D01*
X197838057Y-84592243D01*
X197695200Y-84663671D01*
X197552343Y-84663671D01*
X197409486Y-84592243D01*
X197338057Y-84520814D01*
X197266629Y-84377957D01*
X197195200Y-84092243D01*
X197195200Y-83735100D01*
X197266629Y-83449386D01*
X197338057Y-83306529D01*
X197409486Y-83235100D01*
X197552343Y-83163671D01*
X198552343Y-83163671D02*
X199480914Y-83163671D01*
X198980914Y-83735100D01*
X199195200Y-83735100D01*
X199338057Y-83806529D01*
X199409486Y-83877957D01*
X199480914Y-84020814D01*
X199480914Y-84377957D01*
X199409486Y-84520814D01*
X199338057Y-84592243D01*
X199195200Y-84663671D01*
X198766628Y-84663671D01*
X198623771Y-84592243D01*
X198552343Y-84520814D01*
D13*
X211500000Y-64500000D02*
X189500000Y-64500000D01*
X211500000Y-69500000D02*
X211500000Y-64500000D01*
X189500000Y-69500000D02*
X211500000Y-69500000D01*
X189500000Y-64500000D02*
X189500000Y-69500000D01*
X213000000Y-57000000D02*
X191000000Y-57000000D01*
X213000000Y-62000000D02*
X213000000Y-57000000D01*
X191000000Y-62000000D02*
X213000000Y-62000000D01*
X191000000Y-57000000D02*
X191000000Y-62000000D01*
X189904762Y-62714286D02*
X189952381Y-62571429D01*
X189952381Y-62333333D01*
X189904762Y-62238095D01*
X189857143Y-62190476D01*
X189761905Y-62142857D01*
X189666667Y-62142857D01*
X189571429Y-62190476D01*
X189523810Y-62238095D01*
X189476190Y-62333333D01*
X189428571Y-62523810D01*
X189380952Y-62619048D01*
X189333333Y-62666667D01*
X189238095Y-62714286D01*
X189142857Y-62714286D01*
X189047619Y-62666667D01*
X189000000Y-62619048D01*
X188952381Y-62523810D01*
X188952381Y-62285714D01*
X189000000Y-62142857D01*
X189904762Y-61333333D02*
X189952381Y-61428571D01*
X189952381Y-61619048D01*
X189904762Y-61714286D01*
X189809524Y-61761905D01*
X189428571Y-61761905D01*
X189333333Y-61714286D01*
X189285714Y-61619048D01*
X189285714Y-61428571D01*
X189333333Y-61333333D01*
X189428571Y-61285714D01*
X189523810Y-61285714D01*
X189619048Y-61761905D01*
X189952381Y-60857143D02*
X189285714Y-60857143D01*
X189476190Y-60857143D02*
X189380952Y-60809524D01*
X189333333Y-60761905D01*
X189285714Y-60666667D01*
X189285714Y-60571428D01*
X189952381Y-60238095D02*
X189285714Y-60238095D01*
X188952381Y-60238095D02*
X189000000Y-60285714D01*
X189047619Y-60238095D01*
X189000000Y-60190476D01*
X188952381Y-60238095D01*
X189047619Y-60238095D01*
X189952381Y-59333333D02*
X189428571Y-59333333D01*
X189333333Y-59380952D01*
X189285714Y-59476190D01*
X189285714Y-59666667D01*
X189333333Y-59761905D01*
X189904762Y-59333333D02*
X189952381Y-59428571D01*
X189952381Y-59666667D01*
X189904762Y-59761905D01*
X189809524Y-59809524D01*
X189714286Y-59809524D01*
X189619048Y-59761905D01*
X189571429Y-59666667D01*
X189571429Y-59428571D01*
X189523810Y-59333333D01*
X189952381Y-58714286D02*
X189904762Y-58809524D01*
X189809524Y-58857143D01*
X188952381Y-58857143D01*
X190047619Y-58571428D02*
X190047619Y-57809523D01*
X188952381Y-57714285D02*
X188952381Y-57142856D01*
X189952381Y-57428571D02*
X188952381Y-57428571D01*
X188952381Y-56904761D02*
X189952381Y-56238094D01*
X188952381Y-56238094D02*
X189952381Y-56904761D01*
X188404762Y-70333334D02*
X188452381Y-70190477D01*
X188452381Y-69952381D01*
X188404762Y-69857143D01*
X188357143Y-69809524D01*
X188261905Y-69761905D01*
X188166667Y-69761905D01*
X188071429Y-69809524D01*
X188023810Y-69857143D01*
X187976190Y-69952381D01*
X187928571Y-70142858D01*
X187880952Y-70238096D01*
X187833333Y-70285715D01*
X187738095Y-70333334D01*
X187642857Y-70333334D01*
X187547619Y-70285715D01*
X187500000Y-70238096D01*
X187452381Y-70142858D01*
X187452381Y-69904762D01*
X187500000Y-69761905D01*
X188404762Y-68952381D02*
X188452381Y-69047619D01*
X188452381Y-69238096D01*
X188404762Y-69333334D01*
X188309524Y-69380953D01*
X187928571Y-69380953D01*
X187833333Y-69333334D01*
X187785714Y-69238096D01*
X187785714Y-69047619D01*
X187833333Y-68952381D01*
X187928571Y-68904762D01*
X188023810Y-68904762D01*
X188119048Y-69380953D01*
X188452381Y-68476191D02*
X187785714Y-68476191D01*
X187976190Y-68476191D02*
X187880952Y-68428572D01*
X187833333Y-68380953D01*
X187785714Y-68285715D01*
X187785714Y-68190476D01*
X188452381Y-67857143D02*
X187785714Y-67857143D01*
X187452381Y-67857143D02*
X187500000Y-67904762D01*
X187547619Y-67857143D01*
X187500000Y-67809524D01*
X187452381Y-67857143D01*
X187547619Y-67857143D01*
X188452381Y-66952381D02*
X187928571Y-66952381D01*
X187833333Y-67000000D01*
X187785714Y-67095238D01*
X187785714Y-67285715D01*
X187833333Y-67380953D01*
X188404762Y-66952381D02*
X188452381Y-67047619D01*
X188452381Y-67285715D01*
X188404762Y-67380953D01*
X188309524Y-67428572D01*
X188214286Y-67428572D01*
X188119048Y-67380953D01*
X188071429Y-67285715D01*
X188071429Y-67047619D01*
X188023810Y-66952381D01*
X188452381Y-66333334D02*
X188404762Y-66428572D01*
X188309524Y-66476191D01*
X187452381Y-66476191D01*
X188547619Y-66190476D02*
X188547619Y-65428571D01*
X188452381Y-64619047D02*
X187976190Y-64952381D01*
X188452381Y-65190476D02*
X187452381Y-65190476D01*
X187452381Y-64809523D01*
X187500000Y-64714285D01*
X187547619Y-64666666D01*
X187642857Y-64619047D01*
X187785714Y-64619047D01*
X187880952Y-64666666D01*
X187928571Y-64714285D01*
X187976190Y-64809523D01*
X187976190Y-65190476D01*
X187452381Y-64285714D02*
X188452381Y-63619047D01*
X187452381Y-63619047D02*
X188452381Y-64285714D01*
X207000000Y-85000000D02*
X205000000Y-85000000D01*
X209000000Y-87000000D02*
G75*
G03X207000000Y-85000000I-2000000J0D01*
G01*
X209000000Y-92000000D02*
G75*
G03X211000000Y-94000000I2000000J0D01*
G01*
X209000000Y-87000000D02*
X209000000Y-92000000D01*
D11*
X179833981Y-91064400D02*
G75*
G03X179833981Y-91064400I-283981J0D01*
G01*
X178280000Y-74910000D02*
X178711800Y-74910000D01*
X178280000Y-92690000D02*
X178711800Y-92690000D01*
X204950000Y-92690000D02*
X204518200Y-92690000D01*
X204950000Y-88880000D02*
X204950000Y-88448200D01*
X204950000Y-74910000D02*
X204391200Y-74910000D01*
X204950000Y-78720000D02*
X204950000Y-79151800D01*
X204950000Y-88880000D02*
X204950000Y-92690000D01*
X204950000Y-74910000D02*
X204950000Y-78720000D01*
X178280000Y-74910000D02*
X178280000Y-92690000D01*
D14*
X178330000Y-59465000D02*
X177400000Y-59465000D01*
X175170000Y-59465000D02*
X176100000Y-59465000D01*
X175170000Y-59465000D02*
X175170000Y-61625000D01*
X178330000Y-59465000D02*
X178330000Y-60925000D01*
X178280000Y-66040000D02*
X177350000Y-66040000D01*
X175120000Y-66040000D02*
X176050000Y-66040000D01*
X175120000Y-66040000D02*
X175120000Y-68200000D01*
X178280000Y-66040000D02*
X178280000Y-67500000D01*
X195334000Y-71456000D02*
X196334000Y-71456000D01*
X196334000Y-72816000D02*
X195334000Y-72816000D01*
X181830000Y-59825000D02*
X181830000Y-60825000D01*
X180470000Y-60825000D02*
X180470000Y-59825000D01*
X173430000Y-59925000D02*
X173430000Y-60925000D01*
X172070000Y-60925000D02*
X172070000Y-59925000D01*
X181830000Y-66300000D02*
X181830000Y-67300000D01*
X180470000Y-67300000D02*
X180470000Y-66300000D01*
X173405000Y-66250000D02*
X173405000Y-67250000D01*
X172045000Y-67250000D02*
X172045000Y-66250000D01*
D11*
X211920000Y-94000000D02*
X210650000Y-94000000D01*
X218905000Y-90190000D02*
X226525000Y-90190000D01*
X226525000Y-90190000D02*
X226525000Y-97810000D01*
X226525000Y-97810000D02*
X218905000Y-97810000D01*
X217000000Y-88285000D02*
X218905000Y-88285000D01*
X218905000Y-88285000D02*
X218905000Y-99715000D01*
X218905000Y-99715000D02*
X217000000Y-99715000D01*
X179180181Y-78567505D02*
X179989705Y-78567505D01*
X180084943Y-78519886D01*
X180132562Y-78472267D01*
X180180181Y-78377029D01*
X180180181Y-78186552D01*
X180132562Y-78091314D01*
X180084943Y-78043695D01*
X179989705Y-77996076D01*
X179180181Y-77996076D01*
X180180181Y-76996076D02*
X180180181Y-77567505D01*
X180180181Y-77281791D02*
X179180181Y-77281791D01*
X179323038Y-77377029D01*
X179418276Y-77472267D01*
X179465895Y-77567505D01*
X210811905Y-58677381D02*
X210811905Y-57677381D01*
X211050000Y-57677381D01*
X211192858Y-57725000D01*
X211288096Y-57820238D01*
X211335715Y-57915476D01*
X211383334Y-58105952D01*
X211383334Y-58248810D01*
X211335715Y-58439286D01*
X211288096Y-58534524D01*
X211192858Y-58629762D01*
X211050000Y-58677381D01*
X210811905Y-58677381D01*
X212002381Y-57677381D02*
X212097620Y-57677381D01*
X212192858Y-57725000D01*
X212240477Y-57772619D01*
X212288096Y-57867857D01*
X212335715Y-58058333D01*
X212335715Y-58296429D01*
X212288096Y-58486905D01*
X212240477Y-58582143D01*
X212192858Y-58629762D01*
X212097620Y-58677381D01*
X212002381Y-58677381D01*
X211907143Y-58629762D01*
X211859524Y-58582143D01*
X211811905Y-58486905D01*
X211764286Y-58296429D01*
X211764286Y-58058333D01*
X211811905Y-57867857D01*
X211859524Y-57772619D01*
X211907143Y-57725000D01*
X212002381Y-57677381D01*
X163687167Y-60501281D02*
X163687167Y-61215567D01*
X163639547Y-61358424D01*
X163544309Y-61453662D01*
X163401452Y-61501281D01*
X163306214Y-61501281D01*
X164687167Y-61501281D02*
X164115738Y-61501281D01*
X164401452Y-61501281D02*
X164401452Y-60501281D01*
X164306214Y-60644138D01*
X164210976Y-60739376D01*
X164115738Y-60786995D01*
X168613081Y-96659295D02*
X168613081Y-97135486D01*
X167613081Y-97135486D01*
X168613081Y-96183105D02*
X168565462Y-96278343D01*
X168517843Y-96325962D01*
X168422605Y-96373581D01*
X168136890Y-96373581D01*
X168041652Y-96325962D01*
X167994033Y-96278343D01*
X167946414Y-96183105D01*
X167946414Y-96040247D01*
X167994033Y-95945009D01*
X168041652Y-95897390D01*
X168136890Y-95849771D01*
X168422605Y-95849771D01*
X168517843Y-95897390D01*
X168565462Y-95945009D01*
X168613081Y-96040247D01*
X168613081Y-96183105D01*
X168613081Y-94849771D02*
X168136890Y-95183105D01*
X168613081Y-95421200D02*
X167613081Y-95421200D01*
X167613081Y-95040247D01*
X167660700Y-94945009D01*
X167708319Y-94897390D01*
X167803557Y-94849771D01*
X167946414Y-94849771D01*
X168041652Y-94897390D01*
X168089271Y-94945009D01*
X168136890Y-95040247D01*
X168136890Y-95421200D01*
X168613081Y-93992628D02*
X168089271Y-93992628D01*
X167994033Y-94040247D01*
X167946414Y-94135485D01*
X167946414Y-94325962D01*
X167994033Y-94421200D01*
X168565462Y-93992628D02*
X168613081Y-94087866D01*
X168613081Y-94325962D01*
X168565462Y-94421200D01*
X168470224Y-94468819D01*
X168374986Y-94468819D01*
X168279748Y-94421200D01*
X168232129Y-94325962D01*
X168232129Y-94087866D01*
X168184510Y-93992628D01*
X168708319Y-93754533D02*
X168708319Y-92992628D01*
X167660700Y-92230723D02*
X167613081Y-92325961D01*
X167613081Y-92468818D01*
X167660700Y-92611676D01*
X167755938Y-92706914D01*
X167851176Y-92754533D01*
X168041652Y-92802152D01*
X168184510Y-92802152D01*
X168374986Y-92754533D01*
X168470224Y-92706914D01*
X168565462Y-92611676D01*
X168613081Y-92468818D01*
X168613081Y-92373580D01*
X168565462Y-92230723D01*
X168517843Y-92183104D01*
X168184510Y-92183104D01*
X168184510Y-92373580D01*
X168613081Y-91754533D02*
X167613081Y-91754533D01*
X167613081Y-91373580D01*
X167660700Y-91278342D01*
X167708319Y-91230723D01*
X167803557Y-91183104D01*
X167946414Y-91183104D01*
X168041652Y-91230723D01*
X168089271Y-91278342D01*
X168136890Y-91373580D01*
X168136890Y-91754533D01*
X168613081Y-90754533D02*
X167613081Y-90754533D01*
X167613081Y-90087867D02*
X167613081Y-89897390D01*
X167660700Y-89802152D01*
X167755938Y-89706914D01*
X167946414Y-89659295D01*
X168279748Y-89659295D01*
X168470224Y-89706914D01*
X168565462Y-89802152D01*
X168613081Y-89897390D01*
X168613081Y-90087867D01*
X168565462Y-90183105D01*
X168470224Y-90278343D01*
X168279748Y-90325962D01*
X167946414Y-90325962D01*
X167755938Y-90278343D01*
X167660700Y-90183105D01*
X167613081Y-90087867D01*
X166441381Y-63690476D02*
X166441381Y-64261905D01*
X166441381Y-63976191D02*
X165441381Y-63976191D01*
X165584238Y-64071429D01*
X165679476Y-64166667D01*
X165727095Y-64261905D01*
X165441381Y-63357143D02*
X165441381Y-62738095D01*
X165822333Y-63071429D01*
X165822333Y-62928571D01*
X165869952Y-62833333D01*
X165917571Y-62785714D01*
X166012810Y-62738095D01*
X166250905Y-62738095D01*
X166346143Y-62785714D01*
X166393762Y-62833333D01*
X166441381Y-62928571D01*
X166441381Y-63214286D01*
X166393762Y-63309524D01*
X166346143Y-63357143D01*
X166441381Y-66230476D02*
X166441381Y-66801905D01*
X166441381Y-66516191D02*
X165441381Y-66516191D01*
X165584238Y-66611429D01*
X165679476Y-66706667D01*
X165727095Y-66801905D01*
X165536619Y-65849524D02*
X165489000Y-65801905D01*
X165441381Y-65706667D01*
X165441381Y-65468571D01*
X165489000Y-65373333D01*
X165536619Y-65325714D01*
X165631857Y-65278095D01*
X165727095Y-65278095D01*
X165869952Y-65325714D01*
X166441381Y-65897143D01*
X166441381Y-65278095D01*
X166441381Y-68770476D02*
X166441381Y-69341905D01*
X166441381Y-69056191D02*
X165441381Y-69056191D01*
X165584238Y-69151429D01*
X165679476Y-69246667D01*
X165727095Y-69341905D01*
X166441381Y-67818095D02*
X166441381Y-68389524D01*
X166441381Y-68103810D02*
X165441381Y-68103810D01*
X165584238Y-68199048D01*
X165679476Y-68294286D01*
X165727095Y-68389524D01*
X166441381Y-71310476D02*
X166441381Y-71881905D01*
X166441381Y-71596191D02*
X165441381Y-71596191D01*
X165584238Y-71691429D01*
X165679476Y-71786667D01*
X165727095Y-71881905D01*
X165441381Y-70691429D02*
X165441381Y-70596190D01*
X165489000Y-70500952D01*
X165536619Y-70453333D01*
X165631857Y-70405714D01*
X165822333Y-70358095D01*
X166060429Y-70358095D01*
X166250905Y-70405714D01*
X166346143Y-70453333D01*
X166393762Y-70500952D01*
X166441381Y-70596190D01*
X166441381Y-70691429D01*
X166393762Y-70786667D01*
X166346143Y-70834286D01*
X166250905Y-70881905D01*
X166060429Y-70929524D01*
X165822333Y-70929524D01*
X165631857Y-70881905D01*
X165536619Y-70834286D01*
X165489000Y-70786667D01*
X165441381Y-70691429D01*
X166441381Y-73850476D02*
X166441381Y-73660000D01*
X166393762Y-73564761D01*
X166346143Y-73517142D01*
X166203286Y-73421904D01*
X166012810Y-73374285D01*
X165631857Y-73374285D01*
X165536619Y-73421904D01*
X165489000Y-73469523D01*
X165441381Y-73564761D01*
X165441381Y-73755238D01*
X165489000Y-73850476D01*
X165536619Y-73898095D01*
X165631857Y-73945714D01*
X165869952Y-73945714D01*
X165965190Y-73898095D01*
X166012810Y-73850476D01*
X166060429Y-73755238D01*
X166060429Y-73564761D01*
X166012810Y-73469523D01*
X165965190Y-73421904D01*
X165869952Y-73374285D01*
X165869952Y-76295238D02*
X165822333Y-76390476D01*
X165774714Y-76438095D01*
X165679476Y-76485714D01*
X165631857Y-76485714D01*
X165536619Y-76438095D01*
X165489000Y-76390476D01*
X165441381Y-76295238D01*
X165441381Y-76104761D01*
X165489000Y-76009523D01*
X165536619Y-75961904D01*
X165631857Y-75914285D01*
X165679476Y-75914285D01*
X165774714Y-75961904D01*
X165822333Y-76009523D01*
X165869952Y-76104761D01*
X165869952Y-76295238D01*
X165917571Y-76390476D01*
X165965190Y-76438095D01*
X166060429Y-76485714D01*
X166250905Y-76485714D01*
X166346143Y-76438095D01*
X166393762Y-76390476D01*
X166441381Y-76295238D01*
X166441381Y-76104761D01*
X166393762Y-76009523D01*
X166346143Y-75961904D01*
X166250905Y-75914285D01*
X166060429Y-75914285D01*
X165965190Y-75961904D01*
X165917571Y-76009523D01*
X165869952Y-76104761D01*
X165441381Y-79073333D02*
X165441381Y-78406666D01*
X166441381Y-78835238D01*
X165441381Y-81089523D02*
X165441381Y-81280000D01*
X165489000Y-81375238D01*
X165536619Y-81422857D01*
X165679476Y-81518095D01*
X165869952Y-81565714D01*
X166250905Y-81565714D01*
X166346143Y-81518095D01*
X166393762Y-81470476D01*
X166441381Y-81375238D01*
X166441381Y-81184761D01*
X166393762Y-81089523D01*
X166346143Y-81041904D01*
X166250905Y-80994285D01*
X166012810Y-80994285D01*
X165917571Y-81041904D01*
X165869952Y-81089523D01*
X165822333Y-81184761D01*
X165822333Y-81375238D01*
X165869952Y-81470476D01*
X165917571Y-81518095D01*
X166012810Y-81565714D01*
X165441381Y-83581904D02*
X165441381Y-84058095D01*
X165917571Y-84105714D01*
X165869952Y-84058095D01*
X165822333Y-83962857D01*
X165822333Y-83724761D01*
X165869952Y-83629523D01*
X165917571Y-83581904D01*
X166012810Y-83534285D01*
X166250905Y-83534285D01*
X166346143Y-83581904D01*
X166393762Y-83629523D01*
X166441381Y-83724761D01*
X166441381Y-83962857D01*
X166393762Y-84058095D01*
X166346143Y-84105714D01*
X165774714Y-86169523D02*
X166441381Y-86169523D01*
X165393762Y-86407619D02*
X166108048Y-86645714D01*
X166108048Y-86026666D01*
X165441381Y-89233333D02*
X165441381Y-88614285D01*
X165822333Y-88947619D01*
X165822333Y-88804761D01*
X165869952Y-88709523D01*
X165917571Y-88661904D01*
X166012810Y-88614285D01*
X166250905Y-88614285D01*
X166346143Y-88661904D01*
X166393762Y-88709523D01*
X166441381Y-88804761D01*
X166441381Y-89090476D01*
X166393762Y-89185714D01*
X166346143Y-89233333D01*
X165536619Y-91725714D02*
X165489000Y-91678095D01*
X165441381Y-91582857D01*
X165441381Y-91344761D01*
X165489000Y-91249523D01*
X165536619Y-91201904D01*
X165631857Y-91154285D01*
X165727095Y-91154285D01*
X165869952Y-91201904D01*
X166441381Y-91773333D01*
X166441381Y-91154285D01*
X166441381Y-93694285D02*
X166441381Y-94265714D01*
X166441381Y-93980000D02*
X165441381Y-93980000D01*
X165584238Y-94075238D01*
X165679476Y-94170476D01*
X165727095Y-94265714D01*
X165441381Y-96567619D02*
X165441381Y-96472380D01*
X165489000Y-96377142D01*
X165536619Y-96329523D01*
X165631857Y-96281904D01*
X165822333Y-96234285D01*
X166060429Y-96234285D01*
X166250905Y-96281904D01*
X166346143Y-96329523D01*
X166393762Y-96377142D01*
X166441381Y-96472380D01*
X166441381Y-96567619D01*
X166393762Y-96662857D01*
X166346143Y-96710476D01*
X166250905Y-96758095D01*
X166060429Y-96805714D01*
X165822333Y-96805714D01*
X165631857Y-96758095D01*
X165536619Y-96710476D01*
X165489000Y-96662857D01*
X165441381Y-96567619D01*
X191861905Y-58677381D02*
X191861905Y-57677381D01*
X192100000Y-57677381D01*
X192242858Y-57725000D01*
X192338096Y-57820238D01*
X192385715Y-57915476D01*
X192433334Y-58105952D01*
X192433334Y-58248810D01*
X192385715Y-58439286D01*
X192338096Y-58534524D01*
X192242858Y-58629762D01*
X192100000Y-58677381D01*
X191861905Y-58677381D01*
X192766667Y-57677381D02*
X193433334Y-57677381D01*
X193004762Y-58677381D01*
X194461905Y-58677381D02*
X194461905Y-57677381D01*
X194700000Y-57677381D01*
X194842858Y-57725000D01*
X194938096Y-57820238D01*
X194985715Y-57915476D01*
X195033334Y-58105952D01*
X195033334Y-58248810D01*
X194985715Y-58439286D01*
X194938096Y-58534524D01*
X194842858Y-58629762D01*
X194700000Y-58677381D01*
X194461905Y-58677381D01*
X195890477Y-57677381D02*
X195700000Y-57677381D01*
X195604762Y-57725000D01*
X195557143Y-57772619D01*
X195461905Y-57915476D01*
X195414286Y-58105952D01*
X195414286Y-58486905D01*
X195461905Y-58582143D01*
X195509524Y-58629762D01*
X195604762Y-58677381D01*
X195795239Y-58677381D01*
X195890477Y-58629762D01*
X195938096Y-58582143D01*
X195985715Y-58486905D01*
X195985715Y-58248810D01*
X195938096Y-58153571D01*
X195890477Y-58105952D01*
X195795239Y-58058333D01*
X195604762Y-58058333D01*
X195509524Y-58105952D01*
X195461905Y-58153571D01*
X195414286Y-58248810D01*
X197161905Y-58677381D02*
X197161905Y-57677381D01*
X197400000Y-57677381D01*
X197542858Y-57725000D01*
X197638096Y-57820238D01*
X197685715Y-57915476D01*
X197733334Y-58105952D01*
X197733334Y-58248810D01*
X197685715Y-58439286D01*
X197638096Y-58534524D01*
X197542858Y-58629762D01*
X197400000Y-58677381D01*
X197161905Y-58677381D01*
X198638096Y-57677381D02*
X198161905Y-57677381D01*
X198114286Y-58153571D01*
X198161905Y-58105952D01*
X198257143Y-58058333D01*
X198495239Y-58058333D01*
X198590477Y-58105952D01*
X198638096Y-58153571D01*
X198685715Y-58248810D01*
X198685715Y-58486905D01*
X198638096Y-58582143D01*
X198590477Y-58629762D01*
X198495239Y-58677381D01*
X198257143Y-58677381D01*
X198161905Y-58629762D01*
X198114286Y-58582143D01*
X199961905Y-58702381D02*
X199961905Y-57702381D01*
X200200000Y-57702381D01*
X200342858Y-57750000D01*
X200438096Y-57845238D01*
X200485715Y-57940476D01*
X200533334Y-58130952D01*
X200533334Y-58273810D01*
X200485715Y-58464286D01*
X200438096Y-58559524D01*
X200342858Y-58654762D01*
X200200000Y-58702381D01*
X199961905Y-58702381D01*
X201390477Y-58035714D02*
X201390477Y-58702381D01*
X201152381Y-57654762D02*
X200914286Y-58369048D01*
X201533334Y-58369048D01*
X202530952Y-58702381D02*
X202530952Y-57702381D01*
X202769047Y-57702381D01*
X202911905Y-57750000D01*
X203007143Y-57845238D01*
X203054762Y-57940476D01*
X203102381Y-58130952D01*
X203102381Y-58273810D01*
X203054762Y-58464286D01*
X203007143Y-58559524D01*
X202911905Y-58654762D01*
X202769047Y-58702381D01*
X202530952Y-58702381D01*
X203435714Y-57702381D02*
X204054762Y-57702381D01*
X203721428Y-58083333D01*
X203864286Y-58083333D01*
X203959524Y-58130952D01*
X204007143Y-58178571D01*
X204054762Y-58273810D01*
X204054762Y-58511905D01*
X204007143Y-58607143D01*
X203959524Y-58654762D01*
X203864286Y-58702381D01*
X203578571Y-58702381D01*
X203483333Y-58654762D01*
X203435714Y-58607143D01*
X204626190Y-57702381D02*
X204626190Y-57940476D01*
X204388095Y-57845238D02*
X204626190Y-57940476D01*
X204864286Y-57845238D01*
X204483333Y-58130952D02*
X204626190Y-57940476D01*
X204769048Y-58130952D01*
X205336905Y-58752381D02*
X205336905Y-57752381D01*
X205575000Y-57752381D01*
X205717858Y-57800000D01*
X205813096Y-57895238D01*
X205860715Y-57990476D01*
X205908334Y-58180952D01*
X205908334Y-58323810D01*
X205860715Y-58514286D01*
X205813096Y-58609524D01*
X205717858Y-58704762D01*
X205575000Y-58752381D01*
X205336905Y-58752381D01*
X206289286Y-57847619D02*
X206336905Y-57800000D01*
X206432143Y-57752381D01*
X206670239Y-57752381D01*
X206765477Y-57800000D01*
X206813096Y-57847619D01*
X206860715Y-57942857D01*
X206860715Y-58038095D01*
X206813096Y-58180952D01*
X206241667Y-58752381D01*
X206860715Y-58752381D01*
X208061905Y-58727381D02*
X208061905Y-57727381D01*
X208300000Y-57727381D01*
X208442858Y-57775000D01*
X208538096Y-57870238D01*
X208585715Y-57965476D01*
X208633334Y-58155952D01*
X208633334Y-58298810D01*
X208585715Y-58489286D01*
X208538096Y-58584524D01*
X208442858Y-58679762D01*
X208300000Y-58727381D01*
X208061905Y-58727381D01*
X209585715Y-58727381D02*
X209014286Y-58727381D01*
X209300000Y-58727381D02*
X209300000Y-57727381D01*
X209204762Y-57870238D01*
X209109524Y-57965476D01*
X209014286Y-58013095D01*
X190086905Y-66177381D02*
X190086905Y-65177381D01*
X190325000Y-65177381D01*
X190467858Y-65225000D01*
X190563096Y-65320238D01*
X190610715Y-65415476D01*
X190658334Y-65605952D01*
X190658334Y-65748810D01*
X190610715Y-65939286D01*
X190563096Y-66034524D01*
X190467858Y-66129762D01*
X190325000Y-66177381D01*
X190086905Y-66177381D01*
X190991667Y-65177381D02*
X191658334Y-65177381D01*
X191229762Y-66177381D01*
X192811905Y-66152381D02*
X192811905Y-65152381D01*
X193050000Y-65152381D01*
X193192858Y-65200000D01*
X193288096Y-65295238D01*
X193335715Y-65390476D01*
X193383334Y-65580952D01*
X193383334Y-65723810D01*
X193335715Y-65914286D01*
X193288096Y-66009524D01*
X193192858Y-66104762D01*
X193050000Y-66152381D01*
X192811905Y-66152381D01*
X194240477Y-65152381D02*
X194050000Y-65152381D01*
X193954762Y-65200000D01*
X193907143Y-65247619D01*
X193811905Y-65390476D01*
X193764286Y-65580952D01*
X193764286Y-65961905D01*
X193811905Y-66057143D01*
X193859524Y-66104762D01*
X193954762Y-66152381D01*
X194145239Y-66152381D01*
X194240477Y-66104762D01*
X194288096Y-66057143D01*
X194335715Y-65961905D01*
X194335715Y-65723810D01*
X194288096Y-65628571D01*
X194240477Y-65580952D01*
X194145239Y-65533333D01*
X193954762Y-65533333D01*
X193859524Y-65580952D01*
X193811905Y-65628571D01*
X193764286Y-65723810D01*
X195536905Y-66152381D02*
X195536905Y-65152381D01*
X195775000Y-65152381D01*
X195917858Y-65200000D01*
X196013096Y-65295238D01*
X196060715Y-65390476D01*
X196108334Y-65580952D01*
X196108334Y-65723810D01*
X196060715Y-65914286D01*
X196013096Y-66009524D01*
X195917858Y-66104762D01*
X195775000Y-66152381D01*
X195536905Y-66152381D01*
X197013096Y-65152381D02*
X196536905Y-65152381D01*
X196489286Y-65628571D01*
X196536905Y-65580952D01*
X196632143Y-65533333D01*
X196870239Y-65533333D01*
X196965477Y-65580952D01*
X197013096Y-65628571D01*
X197060715Y-65723810D01*
X197060715Y-65961905D01*
X197013096Y-66057143D01*
X196965477Y-66104762D01*
X196870239Y-66152381D01*
X196632143Y-66152381D01*
X196536905Y-66104762D01*
X196489286Y-66057143D01*
X198236905Y-66127381D02*
X198236905Y-65127381D01*
X198475000Y-65127381D01*
X198617858Y-65175000D01*
X198713096Y-65270238D01*
X198760715Y-65365476D01*
X198808334Y-65555952D01*
X198808334Y-65698810D01*
X198760715Y-65889286D01*
X198713096Y-65984524D01*
X198617858Y-66079762D01*
X198475000Y-66127381D01*
X198236905Y-66127381D01*
X199665477Y-65460714D02*
X199665477Y-66127381D01*
X199427381Y-65079762D02*
X199189286Y-65794048D01*
X199808334Y-65794048D01*
X200936905Y-66127381D02*
X200936905Y-65127381D01*
X201175000Y-65127381D01*
X201317858Y-65175000D01*
X201413096Y-65270238D01*
X201460715Y-65365476D01*
X201508334Y-65555952D01*
X201508334Y-65698810D01*
X201460715Y-65889286D01*
X201413096Y-65984524D01*
X201317858Y-66079762D01*
X201175000Y-66127381D01*
X200936905Y-66127381D01*
X201841667Y-65127381D02*
X202460715Y-65127381D01*
X202127381Y-65508333D01*
X202270239Y-65508333D01*
X202365477Y-65555952D01*
X202413096Y-65603571D01*
X202460715Y-65698810D01*
X202460715Y-65936905D01*
X202413096Y-66032143D01*
X202365477Y-66079762D01*
X202270239Y-66127381D01*
X201984524Y-66127381D01*
X201889286Y-66079762D01*
X201841667Y-66032143D01*
X203405952Y-66152381D02*
X203405952Y-65152381D01*
X203644047Y-65152381D01*
X203786905Y-65200000D01*
X203882143Y-65295238D01*
X203929762Y-65390476D01*
X203977381Y-65580952D01*
X203977381Y-65723810D01*
X203929762Y-65914286D01*
X203882143Y-66009524D01*
X203786905Y-66104762D01*
X203644047Y-66152381D01*
X203405952Y-66152381D01*
X204358333Y-65247619D02*
X204405952Y-65200000D01*
X204501190Y-65152381D01*
X204739286Y-65152381D01*
X204834524Y-65200000D01*
X204882143Y-65247619D01*
X204929762Y-65342857D01*
X204929762Y-65438095D01*
X204882143Y-65580952D01*
X204310714Y-66152381D01*
X204929762Y-66152381D01*
X205501190Y-65152381D02*
X205501190Y-65390476D01*
X205263095Y-65295238D02*
X205501190Y-65390476D01*
X205739286Y-65295238D01*
X205358333Y-65580952D02*
X205501190Y-65390476D01*
X205644048Y-65580952D01*
X206311905Y-66152381D02*
X206311905Y-65152381D01*
X206550000Y-65152381D01*
X206692858Y-65200000D01*
X206788096Y-65295238D01*
X206835715Y-65390476D01*
X206883334Y-65580952D01*
X206883334Y-65723810D01*
X206835715Y-65914286D01*
X206788096Y-66009524D01*
X206692858Y-66104762D01*
X206550000Y-66152381D01*
X206311905Y-66152381D01*
X207835715Y-66152381D02*
X207264286Y-66152381D01*
X207550000Y-66152381D02*
X207550000Y-65152381D01*
X207454762Y-65295238D01*
X207359524Y-65390476D01*
X207264286Y-65438095D01*
X209061905Y-66152381D02*
X209061905Y-65152381D01*
X209300000Y-65152381D01*
X209442858Y-65200000D01*
X209538096Y-65295238D01*
X209585715Y-65390476D01*
X209633334Y-65580952D01*
X209633334Y-65723810D01*
X209585715Y-65914286D01*
X209538096Y-66009524D01*
X209442858Y-66104762D01*
X209300000Y-66152381D01*
X209061905Y-66152381D01*
X210252381Y-65152381D02*
X210347620Y-65152381D01*
X210442858Y-65200000D01*
X210490477Y-65247619D01*
X210538096Y-65342857D01*
X210585715Y-65533333D01*
X210585715Y-65771429D01*
X210538096Y-65961905D01*
X210490477Y-66057143D01*
X210442858Y-66104762D01*
X210347620Y-66152381D01*
X210252381Y-66152381D01*
X210157143Y-66104762D01*
X210109524Y-66057143D01*
X210061905Y-65961905D01*
X210014286Y-65771429D01*
X210014286Y-65533333D01*
X210061905Y-65342857D01*
X210109524Y-65247619D01*
X210157143Y-65200000D01*
X210252381Y-65152381D01*
X174948862Y-58891419D02*
X174853624Y-58843800D01*
X174758386Y-58748562D01*
X174615529Y-58605705D01*
X174520290Y-58558086D01*
X174425052Y-58558086D01*
X174472671Y-58796181D02*
X174377433Y-58748562D01*
X174282195Y-58653324D01*
X174234576Y-58462848D01*
X174234576Y-58129514D01*
X174282195Y-57939038D01*
X174377433Y-57843800D01*
X174472671Y-57796181D01*
X174663148Y-57796181D01*
X174758386Y-57843800D01*
X174853624Y-57939038D01*
X174901243Y-58129514D01*
X174901243Y-58462848D01*
X174853624Y-58653324D01*
X174758386Y-58748562D01*
X174663148Y-58796181D01*
X174472671Y-58796181D01*
X175853624Y-58796181D02*
X175282195Y-58796181D01*
X175567909Y-58796181D02*
X175567909Y-57796181D01*
X175472671Y-57939038D01*
X175377433Y-58034276D01*
X175282195Y-58081895D01*
X174474477Y-62679271D02*
X174617334Y-62726890D01*
X174664953Y-62774510D01*
X174712572Y-62869748D01*
X174712572Y-63012605D01*
X174664953Y-63107843D01*
X174617334Y-63155462D01*
X174522096Y-63203081D01*
X174141143Y-63203081D01*
X174141143Y-62203081D01*
X174474477Y-62203081D01*
X174569715Y-62250700D01*
X174617334Y-62298319D01*
X174664953Y-62393557D01*
X174664953Y-62488795D01*
X174617334Y-62584033D01*
X174569715Y-62631652D01*
X174474477Y-62679271D01*
X174141143Y-62679271D01*
X175093524Y-63155462D02*
X175236381Y-63203081D01*
X175474477Y-63203081D01*
X175569715Y-63155462D01*
X175617334Y-63107843D01*
X175664953Y-63012605D01*
X175664953Y-62917367D01*
X175617334Y-62822129D01*
X175569715Y-62774510D01*
X175474477Y-62726890D01*
X175284000Y-62679271D01*
X175188762Y-62631652D01*
X175141143Y-62584033D01*
X175093524Y-62488795D01*
X175093524Y-62393557D01*
X175141143Y-62298319D01*
X175188762Y-62250700D01*
X175284000Y-62203081D01*
X175522096Y-62203081D01*
X175664953Y-62250700D01*
X176045905Y-63155462D02*
X176188762Y-63203081D01*
X176426858Y-63203081D01*
X176522096Y-63155462D01*
X176569715Y-63107843D01*
X176617334Y-63012605D01*
X176617334Y-62917367D01*
X176569715Y-62822129D01*
X176522096Y-62774510D01*
X176426858Y-62726890D01*
X176236381Y-62679271D01*
X176141143Y-62631652D01*
X176093524Y-62584033D01*
X176045905Y-62488795D01*
X176045905Y-62393557D01*
X176093524Y-62298319D01*
X176141143Y-62250700D01*
X176236381Y-62203081D01*
X176474477Y-62203081D01*
X176617334Y-62250700D01*
X177569715Y-63203081D02*
X176998286Y-63203081D01*
X177284000Y-63203081D02*
X177284000Y-62203081D01*
X177188762Y-62345938D01*
X177093524Y-62441176D01*
X176998286Y-62488795D01*
X177903048Y-62203081D02*
X178522096Y-62203081D01*
X178188762Y-62584033D01*
X178331620Y-62584033D01*
X178426858Y-62631652D01*
X178474477Y-62679271D01*
X178522096Y-62774510D01*
X178522096Y-63012605D01*
X178474477Y-63107843D01*
X178426858Y-63155462D01*
X178331620Y-63203081D01*
X178045905Y-63203081D01*
X177950667Y-63155462D01*
X177903048Y-63107843D01*
X179093524Y-62631652D02*
X178998286Y-62584033D01*
X178950667Y-62536414D01*
X178903048Y-62441176D01*
X178903048Y-62393557D01*
X178950667Y-62298319D01*
X178998286Y-62250700D01*
X179093524Y-62203081D01*
X179284001Y-62203081D01*
X179379239Y-62250700D01*
X179426858Y-62298319D01*
X179474477Y-62393557D01*
X179474477Y-62441176D01*
X179426858Y-62536414D01*
X179379239Y-62584033D01*
X179284001Y-62631652D01*
X179093524Y-62631652D01*
X178998286Y-62679271D01*
X178950667Y-62726890D01*
X178903048Y-62822129D01*
X178903048Y-63012605D01*
X178950667Y-63107843D01*
X178998286Y-63155462D01*
X179093524Y-63203081D01*
X179284001Y-63203081D01*
X179379239Y-63155462D01*
X179426858Y-63107843D01*
X179474477Y-63012605D01*
X179474477Y-62822129D01*
X179426858Y-62726890D01*
X179379239Y-62679271D01*
X179284001Y-62631652D01*
X174694862Y-65431919D02*
X174599624Y-65384300D01*
X174504386Y-65289062D01*
X174361529Y-65146205D01*
X174266290Y-65098586D01*
X174171052Y-65098586D01*
X174218671Y-65336681D02*
X174123433Y-65289062D01*
X174028195Y-65193824D01*
X173980576Y-65003348D01*
X173980576Y-64670014D01*
X174028195Y-64479538D01*
X174123433Y-64384300D01*
X174218671Y-64336681D01*
X174409148Y-64336681D01*
X174504386Y-64384300D01*
X174599624Y-64479538D01*
X174647243Y-64670014D01*
X174647243Y-65003348D01*
X174599624Y-65193824D01*
X174504386Y-65289062D01*
X174409148Y-65336681D01*
X174218671Y-65336681D01*
X175028195Y-64431919D02*
X175075814Y-64384300D01*
X175171052Y-64336681D01*
X175409148Y-64336681D01*
X175504386Y-64384300D01*
X175552005Y-64431919D01*
X175599624Y-64527157D01*
X175599624Y-64622395D01*
X175552005Y-64765252D01*
X174980576Y-65336681D01*
X175599624Y-65336681D01*
X174474477Y-69384871D02*
X174617334Y-69432490D01*
X174664953Y-69480110D01*
X174712572Y-69575348D01*
X174712572Y-69718205D01*
X174664953Y-69813443D01*
X174617334Y-69861062D01*
X174522096Y-69908681D01*
X174141143Y-69908681D01*
X174141143Y-68908681D01*
X174474477Y-68908681D01*
X174569715Y-68956300D01*
X174617334Y-69003919D01*
X174664953Y-69099157D01*
X174664953Y-69194395D01*
X174617334Y-69289633D01*
X174569715Y-69337252D01*
X174474477Y-69384871D01*
X174141143Y-69384871D01*
X175093524Y-69861062D02*
X175236381Y-69908681D01*
X175474477Y-69908681D01*
X175569715Y-69861062D01*
X175617334Y-69813443D01*
X175664953Y-69718205D01*
X175664953Y-69622967D01*
X175617334Y-69527729D01*
X175569715Y-69480110D01*
X175474477Y-69432490D01*
X175284000Y-69384871D01*
X175188762Y-69337252D01*
X175141143Y-69289633D01*
X175093524Y-69194395D01*
X175093524Y-69099157D01*
X175141143Y-69003919D01*
X175188762Y-68956300D01*
X175284000Y-68908681D01*
X175522096Y-68908681D01*
X175664953Y-68956300D01*
X176045905Y-69861062D02*
X176188762Y-69908681D01*
X176426858Y-69908681D01*
X176522096Y-69861062D01*
X176569715Y-69813443D01*
X176617334Y-69718205D01*
X176617334Y-69622967D01*
X176569715Y-69527729D01*
X176522096Y-69480110D01*
X176426858Y-69432490D01*
X176236381Y-69384871D01*
X176141143Y-69337252D01*
X176093524Y-69289633D01*
X176045905Y-69194395D01*
X176045905Y-69099157D01*
X176093524Y-69003919D01*
X176141143Y-68956300D01*
X176236381Y-68908681D01*
X176474477Y-68908681D01*
X176617334Y-68956300D01*
X177569715Y-69908681D02*
X176998286Y-69908681D01*
X177284000Y-69908681D02*
X177284000Y-68908681D01*
X177188762Y-69051538D01*
X177093524Y-69146776D01*
X176998286Y-69194395D01*
X177903048Y-68908681D02*
X178522096Y-68908681D01*
X178188762Y-69289633D01*
X178331620Y-69289633D01*
X178426858Y-69337252D01*
X178474477Y-69384871D01*
X178522096Y-69480110D01*
X178522096Y-69718205D01*
X178474477Y-69813443D01*
X178426858Y-69861062D01*
X178331620Y-69908681D01*
X178045905Y-69908681D01*
X177950667Y-69861062D01*
X177903048Y-69813443D01*
X179093524Y-69337252D02*
X178998286Y-69289633D01*
X178950667Y-69242014D01*
X178903048Y-69146776D01*
X178903048Y-69099157D01*
X178950667Y-69003919D01*
X178998286Y-68956300D01*
X179093524Y-68908681D01*
X179284001Y-68908681D01*
X179379239Y-68956300D01*
X179426858Y-69003919D01*
X179474477Y-69099157D01*
X179474477Y-69146776D01*
X179426858Y-69242014D01*
X179379239Y-69289633D01*
X179284001Y-69337252D01*
X179093524Y-69337252D01*
X178998286Y-69384871D01*
X178950667Y-69432490D01*
X178903048Y-69527729D01*
X178903048Y-69718205D01*
X178950667Y-69813443D01*
X178998286Y-69861062D01*
X179093524Y-69908681D01*
X179284001Y-69908681D01*
X179379239Y-69861062D01*
X179426858Y-69813443D01*
X179474477Y-69718205D01*
X179474477Y-69527729D01*
X179426858Y-69432490D01*
X179379239Y-69384871D01*
X179284001Y-69337252D01*
X192568534Y-72626481D02*
X192235200Y-72150290D01*
X191997105Y-72626481D02*
X191997105Y-71626481D01*
X192378058Y-71626481D01*
X192473296Y-71674100D01*
X192520915Y-71721719D01*
X192568534Y-71816957D01*
X192568534Y-71959814D01*
X192520915Y-72055052D01*
X192473296Y-72102671D01*
X192378058Y-72150290D01*
X191997105Y-72150290D01*
X193520915Y-72626481D02*
X192949486Y-72626481D01*
X193235200Y-72626481D02*
X193235200Y-71626481D01*
X193139962Y-71769338D01*
X193044724Y-71864576D01*
X192949486Y-71912195D01*
X198718562Y-72575681D02*
X198147133Y-72575681D01*
X198432847Y-72575681D02*
X198432847Y-71575681D01*
X198337609Y-71718538D01*
X198242371Y-71813776D01*
X198147133Y-71861395D01*
X199337609Y-71575681D02*
X199432848Y-71575681D01*
X199528086Y-71623300D01*
X199575705Y-71670919D01*
X199623324Y-71766157D01*
X199670943Y-71956633D01*
X199670943Y-72194729D01*
X199623324Y-72385205D01*
X199575705Y-72480443D01*
X199528086Y-72528062D01*
X199432848Y-72575681D01*
X199337609Y-72575681D01*
X199242371Y-72528062D01*
X199194752Y-72480443D01*
X199147133Y-72385205D01*
X199099514Y-72194729D01*
X199099514Y-71956633D01*
X199147133Y-71766157D01*
X199194752Y-71670919D01*
X199242371Y-71623300D01*
X199337609Y-71575681D01*
X200099514Y-72575681D02*
X200099514Y-71575681D01*
X200194752Y-72194729D02*
X200480467Y-72575681D01*
X200480467Y-71909014D02*
X200099514Y-72289967D01*
X183202381Y-62166666D02*
X182726190Y-62500000D01*
X183202381Y-62738095D02*
X182202381Y-62738095D01*
X182202381Y-62357142D01*
X182250000Y-62261904D01*
X182297619Y-62214285D01*
X182392857Y-62166666D01*
X182535714Y-62166666D01*
X182630952Y-62214285D01*
X182678571Y-62261904D01*
X182726190Y-62357142D01*
X182726190Y-62738095D01*
X182297619Y-61785714D02*
X182250000Y-61738095D01*
X182202381Y-61642857D01*
X182202381Y-61404761D01*
X182250000Y-61309523D01*
X182297619Y-61261904D01*
X182392857Y-61214285D01*
X182488095Y-61214285D01*
X182630952Y-61261904D01*
X183202381Y-61833333D01*
X183202381Y-61214285D01*
X183154581Y-59142238D02*
X183154581Y-59713667D01*
X183154581Y-59427953D02*
X182154581Y-59427953D01*
X182297438Y-59523191D01*
X182392676Y-59618429D01*
X182440295Y-59713667D01*
X182154581Y-58523191D02*
X182154581Y-58427952D01*
X182202200Y-58332714D01*
X182249819Y-58285095D01*
X182345057Y-58237476D01*
X182535533Y-58189857D01*
X182773629Y-58189857D01*
X182964105Y-58237476D01*
X183059343Y-58285095D01*
X183106962Y-58332714D01*
X183154581Y-58427952D01*
X183154581Y-58523191D01*
X183106962Y-58618429D01*
X183059343Y-58666048D01*
X182964105Y-58713667D01*
X182773629Y-58761286D01*
X182535533Y-58761286D01*
X182345057Y-58713667D01*
X182249819Y-58666048D01*
X182202200Y-58618429D01*
X182154581Y-58523191D01*
X183154581Y-57761286D02*
X182154581Y-57761286D01*
X182773629Y-57666048D02*
X183154581Y-57380333D01*
X182487914Y-57380333D02*
X182868867Y-57761286D01*
X171577381Y-62366666D02*
X171101190Y-62700000D01*
X171577381Y-62938095D02*
X170577381Y-62938095D01*
X170577381Y-62557142D01*
X170625000Y-62461904D01*
X170672619Y-62414285D01*
X170767857Y-62366666D01*
X170910714Y-62366666D01*
X171005952Y-62414285D01*
X171053571Y-62461904D01*
X171101190Y-62557142D01*
X171101190Y-62938095D01*
X170577381Y-62033333D02*
X170577381Y-61414285D01*
X170958333Y-61747619D01*
X170958333Y-61604761D01*
X171005952Y-61509523D01*
X171053571Y-61461904D01*
X171148810Y-61414285D01*
X171386905Y-61414285D01*
X171482143Y-61461904D01*
X171529762Y-61509523D01*
X171577381Y-61604761D01*
X171577381Y-61890476D01*
X171529762Y-61985714D01*
X171482143Y-62033333D01*
X171552381Y-59045238D02*
X171552381Y-59616667D01*
X171552381Y-59330953D02*
X170552381Y-59330953D01*
X170695238Y-59426191D01*
X170790476Y-59521429D01*
X170838095Y-59616667D01*
X170552381Y-58426191D02*
X170552381Y-58330952D01*
X170600000Y-58235714D01*
X170647619Y-58188095D01*
X170742857Y-58140476D01*
X170933333Y-58092857D01*
X171171429Y-58092857D01*
X171361905Y-58140476D01*
X171457143Y-58188095D01*
X171504762Y-58235714D01*
X171552381Y-58330952D01*
X171552381Y-58426191D01*
X171504762Y-58521429D01*
X171457143Y-58569048D01*
X171361905Y-58616667D01*
X171171429Y-58664286D01*
X170933333Y-58664286D01*
X170742857Y-58616667D01*
X170647619Y-58569048D01*
X170600000Y-58521429D01*
X170552381Y-58426191D01*
X171552381Y-57664286D02*
X170552381Y-57664286D01*
X171171429Y-57569048D02*
X171552381Y-57283333D01*
X170885714Y-57283333D02*
X171266667Y-57664286D01*
X183281581Y-68543466D02*
X182805390Y-68876800D01*
X183281581Y-69114895D02*
X182281581Y-69114895D01*
X182281581Y-68733942D01*
X182329200Y-68638704D01*
X182376819Y-68591085D01*
X182472057Y-68543466D01*
X182614914Y-68543466D01*
X182710152Y-68591085D01*
X182757771Y-68638704D01*
X182805390Y-68733942D01*
X182805390Y-69114895D01*
X182614914Y-67686323D02*
X183281581Y-67686323D01*
X182233962Y-67924419D02*
X182948248Y-68162514D01*
X182948248Y-67543466D01*
X183152381Y-65595238D02*
X183152381Y-66166667D01*
X183152381Y-65880953D02*
X182152381Y-65880953D01*
X182295238Y-65976191D01*
X182390476Y-66071429D01*
X182438095Y-66166667D01*
X182152381Y-64976191D02*
X182152381Y-64880952D01*
X182200000Y-64785714D01*
X182247619Y-64738095D01*
X182342857Y-64690476D01*
X182533333Y-64642857D01*
X182771429Y-64642857D01*
X182961905Y-64690476D01*
X183057143Y-64738095D01*
X183104762Y-64785714D01*
X183152381Y-64880952D01*
X183152381Y-64976191D01*
X183104762Y-65071429D01*
X183057143Y-65119048D01*
X182961905Y-65166667D01*
X182771429Y-65214286D01*
X182533333Y-65214286D01*
X182342857Y-65166667D01*
X182247619Y-65119048D01*
X182200000Y-65071429D01*
X182152381Y-64976191D01*
X183152381Y-64214286D02*
X182152381Y-64214286D01*
X182771429Y-64119048D02*
X183152381Y-63833333D01*
X182485714Y-63833333D02*
X182866667Y-64214286D01*
X171452381Y-69166666D02*
X170976190Y-69500000D01*
X171452381Y-69738095D02*
X170452381Y-69738095D01*
X170452381Y-69357142D01*
X170500000Y-69261904D01*
X170547619Y-69214285D01*
X170642857Y-69166666D01*
X170785714Y-69166666D01*
X170880952Y-69214285D01*
X170928571Y-69261904D01*
X170976190Y-69357142D01*
X170976190Y-69738095D01*
X170452381Y-68261904D02*
X170452381Y-68738095D01*
X170928571Y-68785714D01*
X170880952Y-68738095D01*
X170833333Y-68642857D01*
X170833333Y-68404761D01*
X170880952Y-68309523D01*
X170928571Y-68261904D01*
X171023810Y-68214285D01*
X171261905Y-68214285D01*
X171357143Y-68261904D01*
X171404762Y-68309523D01*
X171452381Y-68404761D01*
X171452381Y-68642857D01*
X171404762Y-68738095D01*
X171357143Y-68785714D01*
X171452381Y-66095238D02*
X171452381Y-66666667D01*
X171452381Y-66380953D02*
X170452381Y-66380953D01*
X170595238Y-66476191D01*
X170690476Y-66571429D01*
X170738095Y-66666667D01*
X170452381Y-65476191D02*
X170452381Y-65380952D01*
X170500000Y-65285714D01*
X170547619Y-65238095D01*
X170642857Y-65190476D01*
X170833333Y-65142857D01*
X171071429Y-65142857D01*
X171261905Y-65190476D01*
X171357143Y-65238095D01*
X171404762Y-65285714D01*
X171452381Y-65380952D01*
X171452381Y-65476191D01*
X171404762Y-65571429D01*
X171357143Y-65619048D01*
X171261905Y-65666667D01*
X171071429Y-65714286D01*
X170833333Y-65714286D01*
X170642857Y-65666667D01*
X170547619Y-65619048D01*
X170500000Y-65571429D01*
X170452381Y-65476191D01*
X171452381Y-64714286D02*
X170452381Y-64714286D01*
X171071429Y-64619048D02*
X171452381Y-64333333D01*
X170785714Y-64333333D02*
X171166667Y-64714286D01*
D15*
X149824429Y-48416857D02*
X150042143Y-48489429D01*
X150405000Y-48489429D01*
X150550143Y-48416857D01*
X150622714Y-48344286D01*
X150695286Y-48199143D01*
X150695286Y-48054000D01*
X150622714Y-47908857D01*
X150550143Y-47836286D01*
X150405000Y-47763714D01*
X150114714Y-47691143D01*
X149969572Y-47618571D01*
X149897000Y-47546000D01*
X149824429Y-47400857D01*
X149824429Y-47255714D01*
X149897000Y-47110571D01*
X149969572Y-47038000D01*
X150114714Y-46965429D01*
X150477572Y-46965429D01*
X150695286Y-47038000D01*
X151348429Y-48489429D02*
X151348429Y-46965429D01*
X151348429Y-47691143D02*
X152219286Y-47691143D01*
X152219286Y-48489429D02*
X152219286Y-46965429D01*
X152945000Y-48489429D02*
X152945000Y-46965429D01*
X153670714Y-47691143D02*
X154178714Y-47691143D01*
X154396428Y-48489429D02*
X153670714Y-48489429D01*
X153670714Y-46965429D01*
X154396428Y-46965429D01*
X155775285Y-48489429D02*
X155049571Y-48489429D01*
X155049571Y-46965429D01*
X156283285Y-48489429D02*
X156283285Y-46965429D01*
X156646142Y-46965429D01*
X156863857Y-47038000D01*
X157008999Y-47183143D01*
X157081571Y-47328286D01*
X157154142Y-47618571D01*
X157154142Y-47836286D01*
X157081571Y-48126571D01*
X157008999Y-48271714D01*
X156863857Y-48416857D01*
X156646142Y-48489429D01*
X156283285Y-48489429D01*
X158605571Y-48489429D02*
X157734714Y-48489429D01*
X158170142Y-48489429D02*
X158170142Y-46965429D01*
X158024999Y-47183143D01*
X157879857Y-47328286D01*
X157734714Y-47400857D01*
D11*
X212007381Y-102588333D02*
X212721667Y-102588333D01*
X212864524Y-102635953D01*
X212959762Y-102731191D01*
X213007381Y-102874048D01*
X213007381Y-102969286D01*
X212102619Y-102159762D02*
X212055000Y-102112143D01*
X212007381Y-102016905D01*
X212007381Y-101778809D01*
X212055000Y-101683571D01*
X212102619Y-101635952D01*
X212197857Y-101588333D01*
X212293095Y-101588333D01*
X212435952Y-101635952D01*
X213007381Y-102207381D01*
X213007381Y-101588333D01*
%LPC*%
D16*
X179550000Y-74910000D03*
X180820000Y-74910000D03*
X182090000Y-74910000D03*
X183360000Y-74910000D03*
X184630000Y-74910000D03*
X185900000Y-74910000D03*
X187170000Y-74910000D03*
X188440000Y-74910000D03*
X189710000Y-74910000D03*
X190980000Y-74910000D03*
X192250000Y-74910000D03*
X193520000Y-74910000D03*
X194790000Y-74910000D03*
X196060000Y-74910000D03*
X197330000Y-74910000D03*
X198600000Y-74910000D03*
X199870000Y-74910000D03*
X201140000Y-74910000D03*
X202410000Y-74910000D03*
X203680000Y-74910000D03*
X203680000Y-92690000D03*
D17*
X204950000Y-79990000D03*
X204950000Y-81260000D03*
X204950000Y-82530000D03*
X204950000Y-83800000D03*
X204950000Y-85070000D03*
X204950000Y-86340000D03*
X204950000Y-87610000D03*
D16*
X202410000Y-92690000D03*
X201140000Y-92690000D03*
X199870000Y-92690000D03*
X198600000Y-92690000D03*
X197330000Y-92690000D03*
X196060000Y-92690000D03*
X194790000Y-92690000D03*
X193520000Y-92690000D03*
X192250000Y-92690000D03*
X190980000Y-92690000D03*
X189710000Y-92690000D03*
X188440000Y-92690000D03*
X187170000Y-92690000D03*
X185900000Y-92690000D03*
X184630000Y-92690000D03*
X183360000Y-92690000D03*
X182090000Y-92690000D03*
X180820000Y-92690000D03*
X179550000Y-92690000D03*
D18*
X211500000Y-60925000D03*
X211500000Y-59655000D03*
D19*
X164084000Y-96520000D03*
D20*
X164084000Y-93980000D03*
X164084000Y-91440000D03*
X164084000Y-88900000D03*
X164084000Y-86360000D03*
X164084000Y-83820000D03*
X164084000Y-81280000D03*
X164084000Y-78740000D03*
X164084000Y-76200000D03*
X164084000Y-73660000D03*
X164084000Y-71120000D03*
X164084000Y-68580000D03*
X164084000Y-66040000D03*
X164084000Y-63500000D03*
D18*
X192600000Y-60925000D03*
X192600000Y-59655000D03*
X195300000Y-60925000D03*
X195300000Y-59655000D03*
X198000000Y-60925000D03*
X198000000Y-59655000D03*
X200700000Y-60925000D03*
X200700000Y-59655000D03*
X203400000Y-60925000D03*
X203400000Y-59655000D03*
X206100000Y-60925000D03*
X206100000Y-59655000D03*
X208800000Y-60925000D03*
X208800000Y-59655000D03*
X190900000Y-68350000D03*
X190900000Y-67080000D03*
X193600000Y-68350000D03*
X193600000Y-67080000D03*
X196300000Y-68350000D03*
X196300000Y-67080000D03*
X199000000Y-68350000D03*
X199000000Y-67080000D03*
X201700000Y-68350000D03*
X201700000Y-67080000D03*
X204400000Y-68350000D03*
X204400000Y-67080000D03*
X207100000Y-68350000D03*
X207100000Y-67080000D03*
X209800000Y-68350000D03*
X209800000Y-67080000D03*
D21*
X175800000Y-61225000D03*
X177700000Y-61225000D03*
X176750000Y-59225000D03*
X175750000Y-67800000D03*
X177650000Y-67800000D03*
X176700000Y-65800000D03*
D22*
X196934000Y-72136000D03*
X194734000Y-72136000D03*
D23*
X181150000Y-61425000D03*
X181150000Y-59225000D03*
X172750000Y-61525000D03*
X172750000Y-59325000D03*
X181150000Y-67900000D03*
X181150000Y-65700000D03*
X172725000Y-67850000D03*
X172725000Y-65650000D03*
D24*
X212000000Y-102410000D03*
X209460000Y-102410000D03*
X206920000Y-102410000D03*
X199300000Y-102410000D03*
X201840000Y-102410000D03*
X204380000Y-102410000D03*
X194220000Y-102410000D03*
X191680000Y-102410000D03*
X189140000Y-102410000D03*
X184060000Y-102410000D03*
X181520000Y-102410000D03*
X212000000Y-54150000D03*
X209460000Y-54150000D03*
X206920000Y-54150000D03*
X204380000Y-54150000D03*
X201840000Y-54150000D03*
X199300000Y-54150000D03*
X196760000Y-54150000D03*
X194220000Y-54150000D03*
X190156000Y-54150000D03*
X187616000Y-54150000D03*
X185076000Y-54150000D03*
X182536000Y-54150000D03*
X179996000Y-54150000D03*
X177456000Y-54150000D03*
X174916000Y-54150000D03*
X172376000Y-54150000D03*
X186600000Y-102410000D03*
D25*
X214540000Y-69390000D03*
X163740000Y-54150000D03*
X162470000Y-102410000D03*
D24*
X169836000Y-54150000D03*
X167296000Y-54150000D03*
X178980000Y-102410000D03*
X176440000Y-102410000D03*
D26*
X211285000Y-89682000D03*
D27*
X214460000Y-89682000D03*
X214460000Y-94000000D03*
X214460000Y-98318000D03*
D26*
X211285000Y-98318000D03*
D28*
X214460000Y-94000000D03*
M02*
