M48
;DRILL file {KiCad 4.0.6-e0-6349~53~ubuntu16.04.1} date Tue Jun  6 11:27:26 2017
;FORMAT={-:-/ absolute / metric / decimal}
FMAT,2
METRIC,TZ
T1C0.300
T2C0.500
T3C0.800
T4C1.000
T5C1.016
T6C3.175
%
G90
G05
M71
T1
X211.Y-92.
T2
X174.587Y-80.886
X174.65Y-74.422
X176.5Y-90.6
X183.2Y-61.7
X183.5Y-66.4
X184.328Y-80.734
X190.7Y-89.9
X201.Y-77.
X201.Y-79.
X201.Y-81.
X201.Y-83.
X201.Y-85.
X201.Y-87.
X201.Y-89.
X201.Y-91.
X203.Y-77.
X203.Y-79.
X203.Y-81.
X203.Y-83.
X203.Y-85.
X203.Y-87.
X203.Y-89.
X203.Y-91.
X205.Y-77.
X205.Y-89.
X205.Y-91.
X205.Y-93.
X205.Y-95.
X205.Y-97.
X205.Y-99.
X207.Y-77.
X207.Y-81.
X207.Y-83.
X207.Y-87.
X207.Y-89.
X207.Y-91.
X207.Y-93.
X207.Y-95.
X207.Y-97.
X207.Y-99.
X207.1Y-79.
X209.Y-77.
X209.Y-79.
X209.Y-81.
X209.Y-83.
X209.Y-95.
X209.Y-97.
X209.Y-99.
X211.Y-77.
X211.Y-79.
X211.Y-81.
X211.Y-83.
X211.Y-85.
X211.Y-87.
X211.285Y-89.682
X211.285Y-98.318
X213.Y-77.
X213.Y-79.
X213.Y-81.
X213.Y-83.
X213.Y-85.
X213.Y-87.
X215.Y-77.
X215.Y-79.
X215.Y-81.
X215.Y-83.
X215.Y-85.
X215.Y-87.
T3
X179.1Y-67.827
X179.5Y-61.255
X185.2Y-90.8
X187.1Y-90.6
X189.3Y-94.7
X191.155Y-94.68
X194.Y-95.2
X194.2Y-63.775
X196.Y-94.7
X196.75Y-63.775
X199.275Y-63.775
X201.775Y-63.775
X204.375Y-63.775
X206.9Y-63.75
X209.4Y-63.75
X211.925Y-63.75
X214.46Y-94.
T4
X164.084Y-63.5
X164.084Y-66.04
X164.084Y-68.58
X164.084Y-71.12
X164.084Y-73.66
X164.084Y-76.2
X164.084Y-78.74
X164.084Y-81.28
X164.084Y-83.82
X164.084Y-86.36
X164.084Y-88.9
X164.084Y-91.44
X164.084Y-93.98
X164.084Y-96.52
T5
X167.296Y-54.15
X169.836Y-54.15
X172.376Y-54.15
X174.916Y-54.15
X176.44Y-102.41
X177.456Y-54.15
X178.98Y-102.41
X179.996Y-54.15
X181.52Y-102.41
X182.536Y-54.15
X184.06Y-102.41
X185.076Y-54.15
X186.6Y-102.41
X187.616Y-54.15
X189.14Y-102.41
X190.156Y-54.15
X191.68Y-102.41
X194.22Y-54.15
X194.22Y-102.41
X196.76Y-54.15
X199.3Y-54.15
X199.3Y-102.41
X201.84Y-54.15
X201.84Y-102.41
X204.38Y-54.15
X204.38Y-102.41
X206.92Y-54.15
X206.92Y-102.41
X209.46Y-54.15
X209.46Y-102.41
X212.Y-54.15
X212.Y-102.41
T6
X162.47Y-102.41
X163.74Y-54.15
X214.54Y-69.39
T0
M30
