%TF.GenerationSoftware,KiCad,Pcbnew,4.0.6-e0-6349~53~ubuntu16.04.1*%
%TF.CreationDate,2017-06-06T11:27:21+01:00*%
%TF.ProjectId,RN2483shield,524E32343833736869656C642E6B6963,rev?*%
%TF.FileFunction,Soldermask,Top*%
%FSLAX46Y46*%
G04 Gerber Fmt 4.6, Leading zero omitted, Abs format (unit mm)*
G04 Created by KiCad (PCBNEW 4.0.6-e0-6349~53~ubuntu16.04.1) date Tue Jun  6 11:27:21 2017*
%MOMM*%
%LPD*%
G01*
G04 APERTURE LIST*
%ADD10C,0.100000*%
%ADD11R,1.416000X1.924000*%
%ADD12R,1.924000X1.416000*%
%ADD13R,2.400000X1.400000*%
%ADD14R,2.150000X2.050000*%
%ADD15C,2.150000*%
%ADD16R,1.200000X1.300000*%
%ADD17R,1.600000X1.300000*%
%ADD18R,1.300000X1.600000*%
%ADD19O,1.924000X2.940000*%
%ADD20C,3.575000*%
%ADD21C,1.400000*%
%ADD22R,5.480000X2.686000*%
%ADD23C,1.924000*%
G04 APERTURE END LIST*
D10*
D11*
X179550000Y-74910000D03*
X180820000Y-74910000D03*
X182090000Y-74910000D03*
X183360000Y-74910000D03*
X184630000Y-74910000D03*
X185900000Y-74910000D03*
X187170000Y-74910000D03*
X188440000Y-74910000D03*
X189710000Y-74910000D03*
X190980000Y-74910000D03*
X192250000Y-74910000D03*
X193520000Y-74910000D03*
X194790000Y-74910000D03*
X196060000Y-74910000D03*
X197330000Y-74910000D03*
X198600000Y-74910000D03*
X199870000Y-74910000D03*
X201140000Y-74910000D03*
X202410000Y-74910000D03*
X203680000Y-74910000D03*
X203680000Y-92690000D03*
D12*
X204950000Y-79990000D03*
X204950000Y-81260000D03*
X204950000Y-82530000D03*
X204950000Y-83800000D03*
X204950000Y-85070000D03*
X204950000Y-86340000D03*
X204950000Y-87610000D03*
D11*
X202410000Y-92690000D03*
X201140000Y-92690000D03*
X199870000Y-92690000D03*
X198600000Y-92690000D03*
X197330000Y-92690000D03*
X196060000Y-92690000D03*
X194790000Y-92690000D03*
X193520000Y-92690000D03*
X192250000Y-92690000D03*
X190980000Y-92690000D03*
X189710000Y-92690000D03*
X188440000Y-92690000D03*
X187170000Y-92690000D03*
X185900000Y-92690000D03*
X184630000Y-92690000D03*
X183360000Y-92690000D03*
X182090000Y-92690000D03*
X180820000Y-92690000D03*
X179550000Y-92690000D03*
D13*
X211500000Y-60925000D03*
X211500000Y-59655000D03*
D14*
X164084000Y-96520000D03*
D15*
X164084000Y-93980000D03*
X164084000Y-91440000D03*
X164084000Y-88900000D03*
X164084000Y-86360000D03*
X164084000Y-83820000D03*
X164084000Y-81280000D03*
X164084000Y-78740000D03*
X164084000Y-76200000D03*
X164084000Y-73660000D03*
X164084000Y-71120000D03*
X164084000Y-68580000D03*
X164084000Y-66040000D03*
X164084000Y-63500000D03*
D13*
X192600000Y-60925000D03*
X192600000Y-59655000D03*
X195300000Y-60925000D03*
X195300000Y-59655000D03*
X198000000Y-60925000D03*
X198000000Y-59655000D03*
X200700000Y-60925000D03*
X200700000Y-59655000D03*
X203400000Y-60925000D03*
X203400000Y-59655000D03*
X206100000Y-60925000D03*
X206100000Y-59655000D03*
X208800000Y-60925000D03*
X208800000Y-59655000D03*
X190900000Y-68350000D03*
X190900000Y-67080000D03*
X193600000Y-68350000D03*
X193600000Y-67080000D03*
X196300000Y-68350000D03*
X196300000Y-67080000D03*
X199000000Y-68350000D03*
X199000000Y-67080000D03*
X201700000Y-68350000D03*
X201700000Y-67080000D03*
X204400000Y-68350000D03*
X204400000Y-67080000D03*
X207100000Y-68350000D03*
X207100000Y-67080000D03*
X209800000Y-68350000D03*
X209800000Y-67080000D03*
D16*
X175800000Y-61225000D03*
X177700000Y-61225000D03*
X176750000Y-59225000D03*
X175750000Y-67800000D03*
X177650000Y-67800000D03*
X176700000Y-65800000D03*
D17*
X196934000Y-72136000D03*
X194734000Y-72136000D03*
D18*
X181150000Y-61425000D03*
X181150000Y-59225000D03*
X172750000Y-61525000D03*
X172750000Y-59325000D03*
X181150000Y-67900000D03*
X181150000Y-65700000D03*
X172725000Y-67850000D03*
X172725000Y-65650000D03*
D19*
X212000000Y-102410000D03*
X209460000Y-102410000D03*
X206920000Y-102410000D03*
X199300000Y-102410000D03*
X201840000Y-102410000D03*
X204380000Y-102410000D03*
X194220000Y-102410000D03*
X191680000Y-102410000D03*
X189140000Y-102410000D03*
X184060000Y-102410000D03*
X181520000Y-102410000D03*
X212000000Y-54150000D03*
X209460000Y-54150000D03*
X206920000Y-54150000D03*
X204380000Y-54150000D03*
X201840000Y-54150000D03*
X199300000Y-54150000D03*
X196760000Y-54150000D03*
X194220000Y-54150000D03*
X190156000Y-54150000D03*
X187616000Y-54150000D03*
X185076000Y-54150000D03*
X182536000Y-54150000D03*
X179996000Y-54150000D03*
X177456000Y-54150000D03*
X174916000Y-54150000D03*
X172376000Y-54150000D03*
X186600000Y-102410000D03*
D20*
X214540000Y-69390000D03*
X163740000Y-54150000D03*
X162470000Y-102410000D03*
D19*
X169836000Y-54150000D03*
X167296000Y-54150000D03*
X178980000Y-102410000D03*
X176440000Y-102410000D03*
D21*
X211285000Y-89682000D03*
D22*
X214460000Y-89682000D03*
X214460000Y-94000000D03*
X214460000Y-98318000D03*
D21*
X211285000Y-98318000D03*
D23*
X214460000Y-94000000D03*
M02*
